<mxfile modified="04/08/2024 01:09:26"><diagram id="pa62f00b15c4b402d940f7000aa86cdff_410258608" name="Packages">﻿<mxGraphModel grid="1" gridSize="10" guides="1" tooltips="1" connect="1" arrows="1" shadow="1"><root><mxCell id="0" /><mxCell id="1" parent="0" /><mxCell id="6053c1fa60704c27a7d573fafaabfe78" parent="1" value="" style="endArrow=circlePlus;startArrow=none;endFill=0;startFill=0;html=1;strokeColor=#555555;strokeWidth=2;shadow=1;fillColor=#F2F2F2;swimlaneFillColor=#F2F2F2;" edge="1" source="052f0c498d7f4670b2442c617b217741" target="4f77bc4ef136418c9168835d038cc9a1"><mxGeometry x="138" y="9" width="27" height="129" as="geometry"><mxPoint x="57" y="312" as="sourcePoint" /><mxPoint x="48" y="203" as="targetPoint" /><Array as="points"><mxPoint x="57" y="257.5" /><mxPoint x="48" y="257.5" /></Array></mxGeometry></mxCell><mxCell id="4f77bc4ef136418c9168835d038cc9a1" parent="1" value="ucalgary" style="shape=folder;tabWidth=80;tabHeight=30;tabPosition=left;boundedLbl=1;html=1;strokeColor=#555555;strokeWidth=2;shadow=1;fillColor=#F2F2F2;swimlaneFillColor=#F2F2F2;" vertex="1"><mxGeometry x="0" y="147" width="96" height="56" as="geometry" /></mxCell><mxCell id="052f0c498d7f4670b2442c617b217741" parent="1" value="oop" style="shape=folder;tabWidth=80;tabHeight=30;tabPosition=left;boundedLbl=1;html=1;strokeColor=#555555;strokeWidth=2;shadow=1;fillColor=#F2F2F2;swimlaneFillColor=#F2F2F2;" vertex="1"><mxGeometry x="15" y="312" width="84" height="56" as="geometry" /></mxCell><mxCell id="07fd078d648e46c18901f85eee4a0c91" parent="1" value="" style="endArrow=circlePlus;startArrow=none;endFill=0;startFill=0;html=1;strokeColor=#555555;strokeWidth=2;shadow=1;fillColor=#F2F2F2;swimlaneFillColor=#F2F2F2;" edge="1" source="4f77bc4ef136418c9168835d038cc9a1" target="7a63753ac71d44b499e4347ad8d5bcb7"><mxGeometry x="20" y="46" width="74" height="111" as="geometry"><mxPoint x="57" y="147" as="sourcePoint" /><mxPoint x="57" y="56" as="targetPoint" /></mxGeometry></mxCell><mxCell id="7a63753ac71d44b499e4347ad8d5bcb7" parent="1" value="edu" style="shape=folder;tabWidth=80;tabHeight=30;tabPosition=left;boundedLbl=1;html=1;strokeColor=#555555;strokeWidth=2;shadow=1;fillColor=#F2F2F2;swimlaneFillColor=#F2F2F2;" vertex="1"><mxGeometry x="15" y="0" width="84" height="56" as="geometry" /></mxCell></root></mxGraphModel></diagram><diagram id="p1540134c3828409db87354dff51bb9c3_282734189" name="oop">﻿<mxGraphModel grid="1" gridSize="10" guides="1" tooltips="1" connect="1" arrows="1" shadow="1"><root><mxCell id="0" /><mxCell id="1" parent="0" /><mxCell id="04b6e05a16544332a9e63eac2484ce53" parent="1" value="" style="endArrow=block;startArrow=none;endFill=0;startFill=0;dashed=1;html=1;strokeColor=#555555;strokeWidth=2;shadow=1;fillColor=#F2F2F2;swimlaneFillColor=#F2F2F2;" edge="1" source="834f4651591741dd9462f2b35a019e71" target="8d24182eee8d498fbde787fbc29f3ab3"><mxGeometry x="926" y="125" width="74" height="111" as="geometry"><mxPoint x="963" y="226" as="sourcePoint" /><mxPoint x="963" y="135" as="targetPoint" /></mxGeometry></mxCell><mxCell id="24bb85ae68604520a6ce8cf2580e2368" parent="1" value="" style="endArrow=block;startArrow=none;endFill=0;startFill=0;dashed=1;html=1;strokeColor=#555555;strokeWidth=2;shadow=1;fillColor=#F2F2F2;swimlaneFillColor=#F2F2F2;" edge="1" source="ee0ce0a8843e405abab6cd75a5e38129" target="9e1e7df97bb84481b4fef408767a5ccb"><mxGeometry x="1062" y="332" width="228" height="450" as="geometry"><mxPoint x="1072" y="772" as="sourcePoint" /><mxPoint x="1280" y="342" as="targetPoint" /><Array as="points"><mxPoint x="1072" y="557" /><mxPoint x="1280" y="557" /></Array></mxGeometry></mxCell><mxCell id="cd8ec14ea1da481b8c11d59680414c92" parent="1" value="" style="startArrow=diamondThin;startFill=0;endArrow=none;endFill=0;html=1;strokeColor=#555555;strokeWidth=2;shadow=1;fillColor=#F2F2F2;swimlaneFillColor=#F2F2F2;" edge="1" source="c04a7378e4444ff29a1f99a9c70c53fa" target="ee0ce0a8843e405abab6cd75a5e38129"><mxGeometry x="1250" y="956" width="358" height="58.913086" as="geometry"><mxPoint x="1607" y="981" as="sourcePoint" /><mxPoint x="1250" y="981" as="targetPoint" /></mxGeometry></mxCell><mxCell id="f3578b008adb4779a2ddab2b1989ab48" parent="1" value="" style="startArrow=diamondThin;startFill=1;endArrow=none;endFill=0;html=1;strokeColor=#555555;strokeWidth=2;shadow=1;fillColor=#F2F2F2;swimlaneFillColor=#F2F2F2;" edge="1" source="d045cb5ec8c54123849e0aa820bfa537" target="2de8c59124d943a096c9024ee0110176"><mxGeometry x="142" y="1233" width="306" height="175.91309" as="geometry"><mxPoint x="447" y="1375" as="sourcePoint" /><mxPoint x="182" y="1233" as="targetPoint" /><Array as="points"><mxPoint x="182" y="1375" /></Array></mxGeometry></mxCell><mxCell id="0ee83a242cf9490d9c2e935ffb605804" parent="1" value="" style="endArrow=block;startArrow=none;endFill=0;startFill=0;dashed=1;html=1;strokeColor=#555555;strokeWidth=2;shadow=1;fillColor=#F2F2F2;swimlaneFillColor=#F2F2F2;" edge="1" source="00c611a5be4848258f579abd5ea027e9" target="8d24182eee8d498fbde787fbc29f3ab3"><mxGeometry x="953" y="125" width="2041" height="129" as="geometry"><mxPoint x="2984" y="244" as="sourcePoint" /><mxPoint x="963" y="135" as="targetPoint" /><Array as="points"><mxPoint x="2984" y="189.5" /><mxPoint x="963" y="189.5" /></Array></mxGeometry></mxCell><mxCell id="8d510b3bb7014c0aaf1db33e43ab9051" parent="1" value="" style="endArrow=block;startArrow=none;endFill=0;startFill=0;dashed=1;html=1;strokeColor=#555555;strokeWidth=2;shadow=1;fillColor=#F2F2F2;swimlaneFillColor=#F2F2F2;" edge="1" source="5112fefe1586475f8e3accc46f299c72" target="9e1e7df97bb84481b4fef408767a5ccb"><mxGeometry x="1270" y="332" width="2138" height="129" as="geometry"><mxPoint x="3398" y="451" as="sourcePoint" /><mxPoint x="1280" y="342" as="targetPoint" /><Array as="points"><mxPoint x="3398" y="396.5" /><mxPoint x="1280" y="396.5" /></Array></mxGeometry></mxCell><mxCell id="1bdeb0390a7a4d7babc8e399e9f24488" parent="1" value="" style="startArrow=diamondThin;startFill=0;endArrow=none;endFill=0;html=1;strokeColor=#555555;strokeWidth=2;shadow=1;fillColor=#F2F2F2;swimlaneFillColor=#F2F2F2;" edge="1" source="75e52ea8e90e46ef926927b504463c1a" target="35cc152a93d341f7ab0a9d84c733f28a"><mxGeometry x="2726.9836" y="880.02734" width="916.01636" height="59.885742" as="geometry"><mxPoint x="3642" y="906" as="sourcePoint" /><mxPoint x="2727" y="905" as="targetPoint" /></mxGeometry></mxCell><mxCell id="4cb097b3ada84a69be50fe047813173d" parent="1" value="" style="endArrow=block;startArrow=none;endFill=0;startFill=0;dashed=1;html=1;strokeColor=#555555;strokeWidth=2;shadow=1;fillColor=#F2F2F2;swimlaneFillColor=#F2F2F2;" edge="1" source="0b528082993446cf83feb2ee71b3038f" target="9e1e7df97bb84481b4fef408767a5ccb"><mxGeometry x="1270" y="332" width="967" height="450" as="geometry"><mxPoint x="2227" y="772" as="sourcePoint" /><mxPoint x="1280" y="342" as="targetPoint" /><Array as="points"><mxPoint x="2227" y="557" /><mxPoint x="1280" y="557" /></Array></mxGeometry></mxCell><mxCell id="175bd7d4437b48779a040a93b26968a2" parent="1" value="" style="startArrow=diamondThin;startFill=0;endArrow=none;endFill=0;html=1;strokeColor=#555555;strokeWidth=2;shadow=1;fillColor=#F2F2F2;swimlaneFillColor=#F2F2F2;" edge="1" source="c04a7378e4444ff29a1f99a9c70c53fa" target="0a360f15ab824dddbbd1d4376049dd07"><mxGeometry x="1959" y="965" width="848" height="58.913086" as="geometry"><mxPoint x="1959" y="990" as="sourcePoint" /><mxPoint x="2806" y="990" as="targetPoint" /></mxGeometry></mxCell><mxCell id="ea60c10e90744bdbb974a541f5aad8b0" parent="1" value="" style="startArrow=diamondThin;startFill=1;endArrow=none;endFill=0;html=1;strokeColor=#555555;strokeWidth=2;shadow=1;fillColor=#F2F2F2;swimlaneFillColor=#F2F2F2;" edge="1" source="557efd1b93ca4ae19a50e643efb7370f" target="2de8c59124d943a096c9024ee0110176"><mxGeometry x="356" y="1102" width="92" height="58.913086" as="geometry"><mxPoint x="447" y="1127" as="sourcePoint" /><mxPoint x="356" y="1127" as="targetPoint" /></mxGeometry></mxCell><mxCell id="3040e630daaf4203bafedf57153a28fa" parent="1" value="" style="startArrow=diamondThin;startFill=1;endArrow=none;endFill=0;html=1;strokeColor=#555555;strokeWidth=2;shadow=1;fillColor=#F2F2F2;swimlaneFillColor=#F2F2F2;" edge="1" source="997e78ea9f1b4cecabda6c50ff4ac3cf" target="ee0ce0a8843e405abab6cd75a5e38129"><mxGeometry x="1041" y="1586" width="81" height="110" as="geometry"><mxPoint x="1081" y="1695" as="sourcePoint" /><mxPoint x="1081" y="1586" as="targetPoint" /></mxGeometry></mxCell><mxCell id="90511c2a12f34ec893956701cb4a57cf" parent="1" value="" style="endArrow=block;startArrow=none;endFill=0;startFill=0;dashed=1;html=1;strokeColor=#555555;strokeWidth=2;shadow=1;fillColor=#F2F2F2;swimlaneFillColor=#F2F2F2;" edge="1" source="0b528082993446cf83feb2ee71b3038f" target="3d5674dcc09d41d1b36991e120568cde"><mxGeometry x="1755" y="653" width="425" height="129" as="geometry"><mxPoint x="2170" y="772" as="sourcePoint" /><mxPoint x="1765" y="663" as="targetPoint" /><Array as="points"><mxPoint x="2170" y="717.5" /><mxPoint x="1765" y="717.5" /></Array></mxGeometry></mxCell><mxCell id="6a9f79249bd54f9186203b62184c05de" parent="1" value="" style="endArrow=block;startArrow=none;endFill=0;startFill=0;html=1;strokeColor=#555555;strokeWidth=2;shadow=1;fillColor=#F2F2F2;swimlaneFillColor=#F2F2F2;" edge="1" source="35cc152a93d341f7ab0a9d84c733f28a" target="834f4651591741dd9462f2b35a019e71"><mxGeometry x="944" y="671" width="1562" height="111" as="geometry"><mxPoint x="2496" y="772" as="sourcePoint" /><mxPoint x="954" y="681" as="targetPoint" /><Array as="points"><mxPoint x="2496" y="726.5" /><mxPoint x="954" y="726.5" /></Array></mxGeometry></mxCell><mxCell id="9750df72436a45e5a14c15ce7fabae28" parent="1" value="" style="startArrow=diamondThin;startFill=0;endArrow=none;endFill=0;html=1;strokeColor=#555555;strokeWidth=2;shadow=1;fillColor=#F2F2F2;swimlaneFillColor=#F2F2F2;" edge="1" source="0b528082993446cf83feb2ee71b3038f" target="0a360f15ab824dddbbd1d4376049dd07"><mxGeometry x="2342" y="919" width="465" height="58.913086" as="geometry"><mxPoint x="2342" y="944" as="sourcePoint" /><mxPoint x="2806" y="944" as="targetPoint" /></mxGeometry></mxCell><mxCell id="9e1e7df97bb84481b4fef408767a5ccb" parent="1" value="DateManageMent" style="swimlane;html=1;strokeColor=#555555;strokeWidth=2;shadow=1;fillColor=#F2F2F2;swimlaneFillColor=#F2F2F2;" vertex="1"><mxGeometry x="1162" y="226" width="235" height="116" as="geometry" /></mxCell><mxCell id="53a24999e5034aa98b506170c6942cf6_interface" parent="9e1e7df97bb84481b4fef408767a5ccb" value="interface" style="text;portConstraint=eastwest;overflow=hidden;rotatable=0;" vertex="1"><mxGeometry y="3" width="230" height="17.460936" as="geometry" /></mxCell><mxCell id="o34719775ef20442b9c0b6336e21d0c4a847" parent="9e1e7df97bb84481b4fef408767a5ccb" value="+ setDate (newDate : String)" style="text;portConstraint=eastwest;overflow=hidden;rotatable=0;" vertex="1"><mxGeometry y="54.82617" width="229" height="19" as="geometry" /></mxCell><mxCell id="o09e515f01b0f42fe8740c2dd311634fa853" parent="9e1e7df97bb84481b4fef408767a5ccb" value="+ getDate (): String" style="text;portConstraint=eastwest;overflow=hidden;rotatable=0;" vertex="1"><mxGeometry y="73.82617" width="229" height="19" as="geometry" /></mxCell><mxCell id="o522fbdd42bbc44f4a94f7146182265bc853" parent="9e1e7df97bb84481b4fef408767a5ccb" value="+ validateDate (date : String): boolean" style="text;portConstraint=eastwest;overflow=hidden;rotatable=0;" vertex="1"><mxGeometry y="92.82617" width="229" height="19" as="geometry" /></mxCell><mxCell id="0067b1f6cd6e43abbe7c3aea68bb5341" parent="1" value="" style="startArrow=diamondThin;startFill=1;endArrow=none;endFill=0;html=1;strokeColor=#555555;strokeWidth=2;shadow=1;fillColor=#F2F2F2;swimlaneFillColor=#F2F2F2;" edge="1" source="557efd1b93ca4ae19a50e643efb7370f" target="0a360f15ab824dddbbd1d4376049dd07"><mxGeometry x="799" y="1041" width="2008" height="58.913086" as="geometry"><mxPoint x="799" y="1066" as="sourcePoint" /><mxPoint x="2806" y="1066" as="targetPoint" /></mxGeometry></mxCell><mxCell id="b5b90bbe193046b9b365fc7191aea79d" parent="1" value="" style="endArrow=open;dashed=1;endFill=0;html=1;strokeColor=#555555;strokeWidth=2;shadow=1;fillColor=#F2F2F2;swimlaneFillColor=#F2F2F2;" edge="1" source="2de8c59124d943a096c9024ee0110176" target="0a360f15ab824dddbbd1d4376049dd07"><mxGeometry x="346" y="1064" width="2470" height="53" as="geometry"><mxPoint x="356" y="1074" as="sourcePoint" /><mxPoint x="2806" y="1075" as="targetPoint" /></mxGeometry></mxCell><mxCell id="a2f6d5956613475aae7858202dbad3a5" parent="1" value="" style="endArrow=block;startArrow=none;endFill=0;startFill=0;dashed=1;html=1;strokeColor=#555555;strokeWidth=2;shadow=1;fillColor=#F2F2F2;swimlaneFillColor=#F2F2F2;" edge="1" source="c04a7378e4444ff29a1f99a9c70c53fa" target="3d5674dcc09d41d1b36991e120568cde"><mxGeometry x="1728" y="653" width="74" height="129" as="geometry"><mxPoint x="1765" y="772" as="sourcePoint" /><mxPoint x="1765" y="663" as="targetPoint" /></mxGeometry></mxCell><mxCell id="06d14185abfe45aabcd71118e55a0679" parent="1" value="" style="startArrow=diamondThin;startFill=0;endArrow=none;endFill=0;html=1;strokeColor=#555555;strokeWidth=2;shadow=1;fillColor=#F2F2F2;swimlaneFillColor=#F2F2F2;" edge="1" source="e20bc0d8356c41eaaa882aa8b86b1d24" target="ee0ce0a8843e405abab6cd75a5e38129"><mxGeometry x="1250" y="1041" width="1972" height="58.913086" as="geometry"><mxPoint x="3221" y="1066" as="sourcePoint" /><mxPoint x="1250" y="1066" as="targetPoint" /></mxGeometry></mxCell><mxCell id="2de8c59124d943a096c9024ee0110176" parent="1" value="DisasterVictimPage" style="swimlane;childLayout=stackLayout;horizontal=1;horizontalStack=0;resizeParent=1;resizeParentMax=0;resizeLast=0;collapsible=1;html=1;strokeColor=#555555;strokeWidth=2;shadow=1;fillColor=#F2F2F2;swimlaneFillColor=#F2F2F2;" vertex="1"><mxGeometry x="8" y="916" width="348" height="317" as="geometry" /></mxCell><mxCell id="a1ed33f58913c47da94115bd9075e3a74870" parent="2de8c59124d943a096c9024ee0110176" value="- victimTable: JTable" style="text;portConstraint=eastwest;overflow=hidden;rotatable=0;" vertex="1"><mxGeometry y="30.826172" width="342" height="19" as="geometry" /></mxCell><mxCell id="ab89a8a393cd746e0b9f922e8a3cd1a9e870" parent="2de8c59124d943a096c9024ee0110176" value="- tableModel: DefaultTableModel" style="text;portConstraint=eastwest;overflow=hidden;rotatable=0;" vertex="1"><mxGeometry y="49.82617" width="342" height="19" as="geometry" /></mxCell><mxCell id="ac2dc1af055714587b4f479471ea807dd871" parent="2de8c59124d943a096c9024ee0110176" value="- immutableRows: ArrayList&lt;Integer&gt;" style="text;portConstraint=eastwest;overflow=hidden;rotatable=0;" vertex="1"><mxGeometry y="68.82617" width="342" height="19" as="geometry" /></mxCell><mxCell id="oe1b8f89baddc46b78be50f7b16bc5987871" parent="2de8c59124d943a096c9024ee0110176" value="+ «create» DisasterVictimPage (locations : ArrayList&lt;Location&gt;, victims : ArrayList&lt;DisasterVictim&gt;, workLocation : Location, familyManager : FamilyRelationManager, supplyManager : SupplyManager)" style="text;portConstraint=eastwest;overflow=hidden;rotatable=0;" vertex="1"><mxGeometry y="93.82617" width="342" height="71" as="geometry" /></mxCell><mxCell id="o22dc8c9a9cd0497ca78b6ea4020a9f5c872" parent="2de8c59124d943a096c9024ee0110176" value="- getLocationOfVictim (victim : DisasterVictim, locations : ArrayList&lt;Location&gt;): Location" style="text;portConstraint=eastwest;overflow=hidden;rotatable=0;" vertex="1"><mxGeometry y="164.82617" width="342" height="37" as="geometry" /></mxCell><mxCell id="o3aaff2a9ae2b4aa5a330394792e8be1c872" parent="2de8c59124d943a096c9024ee0110176" value="- getLocationNames (locations : ArrayList&lt;Location&gt;): String" style="text;portConstraint=eastwest;overflow=hidden;rotatable=0;" vertex="1"><mxGeometry y="201.82617" width="342" height="37" as="geometry" /></mxCell><mxCell id="oe6b3080993474db5a6daab60b291aa50872" parent="2de8c59124d943a096c9024ee0110176" value="- findLocationByName (name : String, locations : ArrayList&lt;Location&gt;): Location" style="text;portConstraint=eastwest;overflow=hidden;rotatable=0;" vertex="1"><mxGeometry y="238.82617" width="342" height="37" as="geometry" /></mxCell><mxCell id="o4eca18c164ec470f991eced3c464ddd8872" parent="2de8c59124d943a096c9024ee0110176" value="+ refreshTable (victims : ArrayList&lt;DisasterVictim&gt;, locations : ArrayList&lt;Location&gt;)" style="text;portConstraint=eastwest;overflow=hidden;rotatable=0;" vertex="1"><mxGeometry y="275.82617" width="342" height="37" as="geometry" /></mxCell><mxCell id="884495638ca641bda72278e47731c950" parent="1" value="" style="startArrow=diamondThin;startFill=1;endArrow=none;endFill=0;html=1;strokeColor=#555555;strokeWidth=2;shadow=1;fillColor=#F2F2F2;swimlaneFillColor=#F2F2F2;" edge="1" source="5112fefe1586475f8e3accc46f299c72" target="00c611a5be4848258f579abd5ea027e9"><mxGeometry x="3161" y="627" width="61" height="58.913086" as="geometry"><mxPoint x="3221" y="652" as="sourcePoint" /><mxPoint x="3161" y="652" as="targetPoint" /></mxGeometry></mxCell><mxCell id="211174439ccb43eca1a62fea9dfea6a5" parent="1" value="" style="endArrow=circlePlus;startArrow=none;endFill=0;startFill=0;html=1;strokeColor=#555555;strokeWidth=2;shadow=1;fillColor=#F2F2F2;swimlaneFillColor=#F2F2F2;" edge="1" source="e9ccf0e71b1e4916a7a2daea11aab1cf" target="f7afe71b2bd64cad9a1cfe2b5cf8aecd"><mxGeometry x="125" y="2178" width="74" height="129" as="geometry"><mxPoint x="162" y="2297" as="sourcePoint" /><mxPoint x="162" y="2188" as="targetPoint" /></mxGeometry></mxCell><mxCell id="6915af89e4054221b2c8ea8827ceb645" parent="1" value="" style="endArrow=block;startArrow=none;endFill=0;startFill=0;dashed=1;html=1;strokeColor=#555555;strokeWidth=2;shadow=1;fillColor=#F2F2F2;swimlaneFillColor=#F2F2F2;" edge="1" source="4ba14dc36c644a5aa16d3d885f9c9fa0" target="3d5674dcc09d41d1b36991e120568cde"><mxGeometry x="1418" y="653" width="357" height="129" as="geometry"><mxPoint x="1428" y="772" as="sourcePoint" /><mxPoint x="1765" y="663" as="targetPoint" /><Array as="points"><mxPoint x="1428" y="717.5" /><mxPoint x="1765" y="717.5" /></Array></mxGeometry></mxCell><mxCell id="ee0ce0a8843e405abab6cd75a5e38129" parent="1" value="DisasterVictim" style="swimlane;childLayout=stackLayout;horizontal=1;horizontalStack=0;resizeParent=1;resizeParentMax=0;resizeLast=0;collapsible=1;html=1;strokeColor=#555555;strokeWidth=2;shadow=1;fillColor=#F2F2F2;swimlaneFillColor=#F2F2F2;" vertex="1"><mxGeometry x="893" y="772" width="357" height="814" as="geometry" /></mxCell><mxCell id="a6a82a0b6602146069b906e4d5c5dc53b873" parent="ee0ce0a8843e405abab6cd75a5e38129" value="- DateOfBirth_Age: String" style="text;portConstraint=eastwest;overflow=hidden;rotatable=0;" vertex="1"><mxGeometry y="30.826172" width="351" height="19" as="geometry" /></mxCell><mxCell id="aa8568a0a9547478dabb4bf471848b6de873" parent="ee0ce0a8843e405abab6cd75a5e38129" value="- description: String" style="text;portConstraint=eastwest;overflow=hidden;rotatable=0;" vertex="1"><mxGeometry y="49.82617" width="351" height="19" as="geometry" /></mxCell><mxCell id="a581384b1902c44c19097bc6242d5ee04873" parent="ee0ce0a8843e405abab6cd75a5e38129" value="- ASSIGNED_SOCIAL_ID: int" style="text;portConstraint=eastwest;overflow=hidden;rotatable=0;" vertex="1"><mxGeometry y="68.82617" width="351" height="19" as="geometry" /></mxCell><mxCell id="adfbaec1596014973b59c8a3d1ca29d0f873" parent="ee0ce0a8843e405abab6cd75a5e38129" value="- medicalRecords: ArrayList&lt;MedicalRecord&gt;" style="text;portConstraint=eastwest;overflow=hidden;rotatable=0;" vertex="1"><mxGeometry y="87.82617" width="351" height="19" as="geometry" /></mxCell><mxCell id="acf6991c4b8584aaa808dfe2283c18d5f873" parent="ee0ce0a8843e405abab6cd75a5e38129" value="- ENTRY_DATE: String" style="text;portConstraint=eastwest;overflow=hidden;rotatable=0;" vertex="1"><mxGeometry y="106.82617" width="351" height="19" as="geometry" /></mxCell><mxCell id="af6ae8b3d88324e239657c3289d5a50a7874" parent="ee0ce0a8843e405abab6cd75a5e38129" value="- personalBelongings: HashSet&lt;Supply&gt;" style="text;portConstraint=eastwest;overflow=hidden;rotatable=0;" vertex="1"><mxGeometry y="125.82617" width="351" height="19" as="geometry" /></mxCell><mxCell id="ada1faacb40dd4403bdbb0a89fc753408874" parent="ee0ce0a8843e405abab6cd75a5e38129" value="- dietaryPreference: ArrayList&lt;DietaryRestrictions&gt;" style="text;portConstraint=eastwest;overflow=hidden;rotatable=0;" vertex="1"><mxGeometry y="144.82617" width="351" height="19" as="geometry" /></mxCell><mxCell id="ac2412da4f4894a6f8c516db4f46145f0874" parent="ee0ce0a8843e405abab6cd75a5e38129" value=" counter: int" style="text;portConstraint=eastwest;overflow=hidden;rotatable=0;" vertex="1"><mxGeometry y="163.82617" width="351" height="19" as="geometry" /></mxCell><mxCell id="o63fd26c0333e4f81b312665e17fbdf2a874" parent="ee0ce0a8843e405abab6cd75a5e38129" value="+ «create» DisasterVictim (firstName : String, ENTRY_DATE : String)" style="text;portConstraint=eastwest;overflow=hidden;rotatable=0;" vertex="1"><mxGeometry y="188.82617" width="351" height="37" as="geometry" /></mxCell><mxCell id="o01bab8a574534f759afd64f538dad7b8874" parent="ee0ce0a8843e405abab6cd75a5e38129" value="+ validateDate (date : String): boolean" style="text;portConstraint=eastwest;overflow=hidden;rotatable=0;" vertex="1"><mxGeometry y="225.82617" width="351" height="19" as="geometry" /></mxCell><mxCell id="o507981bc33e54b1ba781b77aa0b6a063874" parent="ee0ce0a8843e405abab6cd75a5e38129" value="+ getDateOfBirth_Age (): String" style="text;portConstraint=eastwest;overflow=hidden;rotatable=0;" vertex="1"><mxGeometry y="244.82617" width="351" height="19" as="geometry" /></mxCell><mxCell id="odbd5630e73384ef08553287b205a7855874" parent="ee0ce0a8843e405abab6cd75a5e38129" value="+ getMedicalRecords (): ArrayList&lt;MedicalRecord&gt;" style="text;portConstraint=eastwest;overflow=hidden;rotatable=0;" vertex="1"><mxGeometry y="263.82617" width="351" height="19" as="geometry" /></mxCell><mxCell id="oedf692cb97a44e8581ac5e2ebbfc91df874" parent="ee0ce0a8843e405abab6cd75a5e38129" value="+ getEntryDate (): String" style="text;portConstraint=eastwest;overflow=hidden;rotatable=0;" vertex="1"><mxGeometry y="282.82617" width="351" height="19" as="geometry" /></mxCell><mxCell id="ob372cdb6f00645ae9c9128ad0cc0f44a874" parent="ee0ce0a8843e405abab6cd75a5e38129" value="+ getAssignedSocialID (): int" style="text;portConstraint=eastwest;overflow=hidden;rotatable=0;" vertex="1"><mxGeometry y="301.82617" width="351" height="19" as="geometry" /></mxCell><mxCell id="oa7d64abeeca540bf91a49ef6586cde03874" parent="ee0ce0a8843e405abab6cd75a5e38129" value="+ getPersonalBelongings (): HashSet&lt;Supply&gt;" style="text;portConstraint=eastwest;overflow=hidden;rotatable=0;" vertex="1"><mxGeometry y="320.82617" width="351" height="19" as="geometry" /></mxCell><mxCell id="off0f63a570df47f58a35d60d45543ded874" parent="ee0ce0a8843e405abab6cd75a5e38129" value="+ getDietaryPreference (): ArrayList&lt;DietaryRestrictions&gt;" style="text;portConstraint=eastwest;overflow=hidden;rotatable=0;" vertex="1"><mxGeometry y="339.82617" width="351" height="19" as="geometry" /></mxCell><mxCell id="o86fc685de0cb4f3b9c87160c2018886d875" parent="ee0ce0a8843e405abab6cd75a5e38129" value="+ setDateOfBirth (DateOfBirth : String)" style="text;portConstraint=eastwest;overflow=hidden;rotatable=0;" vertex="1"><mxGeometry y="358.82617" width="351" height="19" as="geometry" /></mxCell><mxCell id="o71c22cf9884b4d3283a019e820a00959875" parent="ee0ce0a8843e405abab6cd75a5e38129" value="+ setApproxAge (age : String)" style="text;portConstraint=eastwest;overflow=hidden;rotatable=0;" vertex="1"><mxGeometry y="377.82617" width="351" height="19" as="geometry" /></mxCell><mxCell id="o0c10b66296514b56a9289d28df730cc5875" parent="ee0ce0a8843e405abab6cd75a5e38129" value="+ setMedicalRecords (medicalRecords : ArrayList&lt;MedicalRecord&gt;)" style="text;portConstraint=eastwest;overflow=hidden;rotatable=0;" vertex="1"><mxGeometry y="396.82617" width="351" height="37" as="geometry" /></mxCell><mxCell id="o766f13ebe68a4a71920e06737a1437d2875" parent="ee0ce0a8843e405abab6cd75a5e38129" value="+ setPersonalBelongings (personalBelongings : HashSet&lt;Supply&gt;)" style="text;portConstraint=eastwest;overflow=hidden;rotatable=0;" vertex="1"><mxGeometry y="433.82617" width="351" height="37" as="geometry" /></mxCell><mxCell id="oe9f218f80d8840a1ae254bef9e0bbb69875" parent="ee0ce0a8843e405abab6cd75a5e38129" value="+ addPersonalBelonging (supply : Supply, location : Location, manager : SupplyManager)" style="text;portConstraint=eastwest;overflow=hidden;rotatable=0;" vertex="1"><mxGeometry y="470.82617" width="351" height="37" as="geometry" /></mxCell><mxCell id="o45853b31b55643319eb6ed1ce52503e2875" parent="ee0ce0a8843e405abab6cd75a5e38129" value="+ removePersonalBelonging (supply : Supply)" style="text;portConstraint=eastwest;overflow=hidden;rotatable=0;" vertex="1"><mxGeometry y="507.82617" width="351" height="19" as="geometry" /></mxCell><mxCell id="obcbeb676434b4c90b8d798582273dc70875" parent="ee0ce0a8843e405abab6cd75a5e38129" value="+ addMedicalRecord (medicalRecord : MedicalRecord)" style="text;portConstraint=eastwest;overflow=hidden;rotatable=0;" vertex="1"><mxGeometry y="526.8262" width="351" height="19" as="geometry" /></mxCell><mxCell id="o3b11bc16f6ce451797ce80144d244d67875" parent="ee0ce0a8843e405abab6cd75a5e38129" value="+ removeMedicalRecord (medicalRecord : MedicalRecord)" style="text;portConstraint=eastwest;overflow=hidden;rotatable=0;" vertex="1"><mxGeometry y="545.8262" width="351" height="19" as="geometry" /></mxCell><mxCell id="oa17e6582957e460c85a17a90dfeb70db875" parent="ee0ce0a8843e405abab6cd75a5e38129" value="+ addDietaryPreference (preference : DietaryRestrictions.DietaryRestriction)" style="text;portConstraint=eastwest;overflow=hidden;rotatable=0;" vertex="1"><mxGeometry y="564.8262" width="351" height="37" as="geometry" /></mxCell><mxCell id="o13b68698c17841ddba2fe490d31c8566875" parent="ee0ce0a8843e405abab6cd75a5e38129" value="+ removeDietaryPreference (preference : DietaryRestrictions.DietaryRestriction)" style="text;portConstraint=eastwest;overflow=hidden;rotatable=0;" vertex="1"><mxGeometry y="601.8262" width="351" height="37" as="geometry" /></mxCell><mxCell id="oc143633449614f6b890b3c6607726006875" parent="ee0ce0a8843e405abab6cd75a5e38129" value="+ getDescription (): String" style="text;portConstraint=eastwest;overflow=hidden;rotatable=0;" vertex="1"><mxGeometry y="638.8262" width="351" height="19" as="geometry" /></mxCell><mxCell id="tvd5c1a530458f4ee8ac317b6f4ebd3244" parent="ee0ce0a8843e405abab6cd75a5e38129" value="{Annotation = Override&#xD;}" style="text;portConstraint=eastwest;overflow=hidden;rotatable=0;" vertex="1"><mxGeometry y="657.8262" width="351" height="19" as="geometry" /></mxCell><mxCell id="oa72eaaeda682438c84292ec1be3f5fa4875" parent="ee0ce0a8843e405abab6cd75a5e38129" value="+ setDescription (newDescription : String)" style="text;portConstraint=eastwest;overflow=hidden;rotatable=0;" vertex="1"><mxGeometry y="676.8262" width="351" height="19" as="geometry" /></mxCell><mxCell id="tvf32a275a0c234081bfd8c3451e80c316" parent="ee0ce0a8843e405abab6cd75a5e38129" value="{Annotation = Override&#xD;}" style="text;portConstraint=eastwest;overflow=hidden;rotatable=0;" vertex="1"><mxGeometry y="695.8262" width="351" height="19" as="geometry" /></mxCell><mxCell id="o321808e476e7403aa9041a537fbe7a54875" parent="ee0ce0a8843e405abab6cd75a5e38129" value="+ writeFile ()" style="text;portConstraint=eastwest;overflow=hidden;rotatable=0;" vertex="1"><mxGeometry y="714.8262" width="351" height="19" as="geometry" /></mxCell><mxCell id="o446b1f1ebc80464594597f5e95342983875" parent="ee0ce0a8843e405abab6cd75a5e38129" value="+ mountFile ()" style="text;portConstraint=eastwest;overflow=hidden;rotatable=0;" vertex="1"><mxGeometry y="733.8262" width="351" height="19" as="geometry" /></mxCell><mxCell id="oa68437c3d1ab4bdfa3863ff875ece62d875" parent="ee0ce0a8843e405abab6cd75a5e38129" value="+ dismountFile ()" style="text;portConstraint=eastwest;overflow=hidden;rotatable=0;" vertex="1"><mxGeometry y="752.8262" width="351" height="19" as="geometry" /></mxCell><mxCell id="o92c682bc6f154f7db98f19104acb3ae7875" parent="ee0ce0a8843e405abab6cd75a5e38129" value="+ setDate (newDate : String)" style="text;portConstraint=eastwest;overflow=hidden;rotatable=0;" vertex="1"><mxGeometry y="771.8262" width="351" height="19" as="geometry" /></mxCell><mxCell id="ocd39505ca06f4628a5f726007db0bb63875" parent="ee0ce0a8843e405abab6cd75a5e38129" value="+ getDate (): String" style="text;portConstraint=eastwest;overflow=hidden;rotatable=0;" vertex="1"><mxGeometry y="790.8262" width="351" height="19" as="geometry" /></mxCell><mxCell id="4ba14dc36c644a5aa16d3d885f9c9fa0" parent="1" value="Supply" style="swimlane;childLayout=stackLayout;horizontal=1;horizontalStack=0;resizeParent=1;resizeParentMax=0;resizeLast=0;collapsible=1;html=1;strokeColor=#555555;strokeWidth=2;shadow=1;fillColor=#F2F2F2;swimlaneFillColor=#F2F2F2;" vertex="1"><mxGeometry x="1288" y="772" width="281" height="212" as="geometry" /></mxCell><mxCell id="a521d727ee5a84df193276145d0026489894" parent="4ba14dc36c644a5aa16d3d885f9c9fa0" value="- type: String" style="text;portConstraint=eastwest;overflow=hidden;rotatable=0;" vertex="1"><mxGeometry y="30.826172" width="275" height="19" as="geometry" /></mxCell><mxCell id="ab52b51b5d735495d84e685a4f36b41b0894" parent="4ba14dc36c644a5aa16d3d885f9c9fa0" value="- quantity: int" style="text;portConstraint=eastwest;overflow=hidden;rotatable=0;" vertex="1"><mxGeometry y="49.82617" width="275" height="19" as="geometry" /></mxCell><mxCell id="oe3e0fb2c7eef4395a7289a78203a479e894" parent="4ba14dc36c644a5aa16d3d885f9c9fa0" value="+ «create» Supply (type : String, quantity : int)" style="text;portConstraint=eastwest;overflow=hidden;rotatable=0;" vertex="1"><mxGeometry y="74.82617" width="275" height="19" as="geometry" /></mxCell><mxCell id="o42c14990705847e79a4724304f3d642a894" parent="4ba14dc36c644a5aa16d3d885f9c9fa0" value="+ getDescription (): String" style="text;portConstraint=eastwest;overflow=hidden;rotatable=0;" vertex="1"><mxGeometry y="93.82617" width="275" height="19" as="geometry" /></mxCell><mxCell id="tv683e8da6572648c495b6cf060440f3fb" parent="4ba14dc36c644a5aa16d3d885f9c9fa0" value="{Annotation = Override&#xD;}" style="text;portConstraint=eastwest;overflow=hidden;rotatable=0;" vertex="1"><mxGeometry y="112.82617" width="275" height="19" as="geometry" /></mxCell><mxCell id="ocd3deb3a46de4fb59da4099776311c2a894" parent="4ba14dc36c644a5aa16d3d885f9c9fa0" value="+ setDescription (type : String)" style="text;portConstraint=eastwest;overflow=hidden;rotatable=0;" vertex="1"><mxGeometry y="131.82617" width="275" height="19" as="geometry" /></mxCell><mxCell id="tv370f062ac05a4f8ca105ec340772695e" parent="4ba14dc36c644a5aa16d3d885f9c9fa0" value="{Annotation = Override&#xD;}" style="text;portConstraint=eastwest;overflow=hidden;rotatable=0;" vertex="1"><mxGeometry y="150.82617" width="275" height="19" as="geometry" /></mxCell><mxCell id="o7e4a6177717846d7878c2c00d6e80367894" parent="4ba14dc36c644a5aa16d3d885f9c9fa0" value="+ getQuantity (): int" style="text;portConstraint=eastwest;overflow=hidden;rotatable=0;" vertex="1"><mxGeometry y="169.82617" width="275" height="19" as="geometry" /></mxCell><mxCell id="of031d7a7df3143a59317eb070c77688b894" parent="4ba14dc36c644a5aa16d3d885f9c9fa0" value="+ setQuantity (quantity : int)" style="text;portConstraint=eastwest;overflow=hidden;rotatable=0;" vertex="1"><mxGeometry y="188.82617" width="275" height="19" as="geometry" /></mxCell><mxCell id="1669e54746824fdba137027440da57fb" parent="1" value="PersonalBelongingsPopup" style="swimlane;childLayout=stackLayout;horizontal=1;horizontalStack=0;resizeParent=1;resizeParentMax=0;resizeLast=0;collapsible=1;html=1;strokeColor=#555555;strokeWidth=2;shadow=1;fillColor=#F2F2F2;swimlaneFillColor=#F2F2F2;" vertex="1"><mxGeometry x="3221" y="1255" width="350" height="224" as="geometry" /></mxCell><mxCell id="a9757bd632e984af19c746013c9cef274864" parent="1669e54746824fdba137027440da57fb" value="- parentWindow: DisasterVictimPage" style="text;portConstraint=eastwest;overflow=hidden;rotatable=0;" vertex="1"><mxGeometry y="30.826172" width="344" height="19" as="geometry" /></mxCell><mxCell id="aa748f4f402f748da9406ae5dd638fd81864" parent="1669e54746824fdba137027440da57fb" value="- selectedVictim: DisasterVictim" style="text;portConstraint=eastwest;overflow=hidden;rotatable=0;" vertex="1"><mxGeometry y="49.82617" width="344" height="19" as="geometry" /></mxCell><mxCell id="abd38b9be4091453db0e97e8a01ff2581864" parent="1669e54746824fdba137027440da57fb" value="- lastSelectedPerson: DisasterVictim" style="text;portConstraint=eastwest;overflow=hidden;rotatable=0;" vertex="1"><mxGeometry y="68.82617" width="344" height="19" as="geometry" /></mxCell><mxCell id="o5e16af0fac3447dfad9ba28fb2b95929864" parent="1669e54746824fdba137027440da57fb" value="«create» PersonalBelongingsPopup (supplies : HashSet&lt;Supply&gt;, shelters : ArrayList&lt;Location&gt;, victimTable : JTable, tableModel : DefaultTableModel, victims : ArrayList&lt;DisasterVictim&gt;, supplyManager : SupplyManager, parentWindow : DisasterVictimPage)" style="text;portConstraint=eastwest;overflow=hidden;rotatable=0;" vertex="1"><mxGeometry y="93.82617" width="344" height="89" as="geometry" /></mxCell><mxCell id="od8551005d9b34fc7a086d16c534fdcc7865" parent="1669e54746824fdba137027440da57fb" value="- refreshPersonalBelongingsTable (supplies : HashSet&lt;Supply&gt;, containedTable : DefaultTableModel)" style="text;portConstraint=eastwest;overflow=hidden;rotatable=0;" vertex="1"><mxGeometry y="182.82617" width="344" height="37" as="geometry" /></mxCell><mxCell id="201659c0c2e14cbe9398a7e8d8c7a61c" parent="1" value="" style="startArrow=diamondThin;startFill=1;endArrow=none;endFill=0;html=1;strokeColor=#555555;strokeWidth=2;shadow=1;fillColor=#F2F2F2;swimlaneFillColor=#F2F2F2;" edge="1" source="557efd1b93ca4ae19a50e643efb7370f" target="ee0ce0a8843e405abab6cd75a5e38129"><mxGeometry x="799" y="1041" width="95" height="58.913086" as="geometry"><mxPoint x="799" y="1066" as="sourcePoint" /><mxPoint x="893" y="1066" as="targetPoint" /></mxGeometry></mxCell><mxCell id="cc38290d78454775a37cab4771f71d70" parent="1" value="" style="endArrow=open;dashed=1;endFill=0;html=1;strokeColor=#555555;strokeWidth=2;shadow=1;fillColor=#F2F2F2;swimlaneFillColor=#F2F2F2;" edge="1" source="557efd1b93ca4ae19a50e643efb7370f" target="0b528082993446cf83feb2ee71b3038f"><mxGeometry x="789" y="1056" width="1218" height="53" as="geometry"><mxPoint x="799" y="1066" as="sourcePoint" /><mxPoint x="1997" y="1066" as="targetPoint" /></mxGeometry></mxCell><mxCell id="5c87fcb7f02041749b71f13ea0aef657" parent="1" value="" style="endArrow=block;startArrow=none;endFill=0;startFill=0;dashed=1;html=1;strokeColor=#555555;strokeWidth=2;shadow=1;fillColor=#F2F2F2;swimlaneFillColor=#F2F2F2;" edge="1" source="c04a7378e4444ff29a1f99a9c70c53fa" target="9e1e7df97bb84481b4fef408767a5ccb"><mxGeometry x="1270" y="332" width="523" height="450" as="geometry"><mxPoint x="1783" y="772" as="sourcePoint" /><mxPoint x="1280" y="342" as="targetPoint" /><Array as="points"><mxPoint x="1783" y="557" /><mxPoint x="1280" y="557" /></Array></mxGeometry></mxCell><mxCell id="420b46f4e64b49d9a16b53543b9253b5" parent="1" value="" style="startArrow=diamondThin;startFill=1;endArrow=none;endFill=0;html=1;strokeColor=#555555;strokeWidth=2;shadow=1;fillColor=#F2F2F2;swimlaneFillColor=#F2F2F2;" edge="1" source="1669e54746824fdba137027440da57fb" target="2de8c59124d943a096c9024ee0110176"><mxGeometry x="142" y="1233" width="3080" height="167.91309" as="geometry"><mxPoint x="3221" y="1367" as="sourcePoint" /><mxPoint x="182" y="1233" as="targetPoint" /><Array as="points"><mxPoint x="182" y="1367" /></Array></mxGeometry></mxCell><mxCell id="8d24182eee8d498fbde787fbc29f3ab3" parent="1" value="ExternalFileIO" style="swimlane;html=1;strokeColor=#555555;strokeWidth=2;shadow=1;fillColor=#F2F2F2;swimlaneFillColor=#F2F2F2;" vertex="1"><mxGeometry x="867" y="0" width="192" height="135" as="geometry" /></mxCell><mxCell id="729da6fc1e7949f28f6b65c35db59cd1_interface" parent="8d24182eee8d498fbde787fbc29f3ab3" value="interface" style="text;portConstraint=eastwest;overflow=hidden;rotatable=0;" vertex="1"><mxGeometry y="3" width="187" height="17.460936" as="geometry" /></mxCell><mxCell id="o0c7ab31738e040a7b1475ab8c814bf7c904" parent="8d24182eee8d498fbde787fbc29f3ab3" value="+ readFile (): ArrayList&lt;String&gt;" style="text;portConstraint=eastwest;overflow=hidden;rotatable=0;" vertex="1"><mxGeometry y="54.826168" width="186" height="19" as="geometry" /></mxCell><mxCell id="ob82d11d06dd64bb39f939067868bdae0904" parent="8d24182eee8d498fbde787fbc29f3ab3" value="+ writeFile ()" style="text;portConstraint=eastwest;overflow=hidden;rotatable=0;" vertex="1"><mxGeometry y="73.82617" width="186" height="19" as="geometry" /></mxCell><mxCell id="o40a6faa88a0749ac8689644c6a1fc01b904" parent="8d24182eee8d498fbde787fbc29f3ab3" value="+ mountFile ()" style="text;portConstraint=eastwest;overflow=hidden;rotatable=0;" vertex="1"><mxGeometry y="92.82617" width="186" height="19" as="geometry" /></mxCell><mxCell id="of2209b9e9ddd4bc09b5862b21b457a30904" parent="8d24182eee8d498fbde787fbc29f3ab3" value="+ dismountFile ()" style="text;portConstraint=eastwest;overflow=hidden;rotatable=0;" vertex="1"><mxGeometry y="111.82617" width="186" height="19" as="geometry" /></mxCell><mxCell id="0b528082993446cf83feb2ee71b3038f" parent="1" value="MedicalRecord" style="swimlane;childLayout=stackLayout;horizontal=1;horizontalStack=0;resizeParent=1;resizeParentMax=0;resizeLast=0;collapsible=1;html=1;strokeColor=#555555;strokeWidth=2;shadow=1;fillColor=#F2F2F2;swimlaneFillColor=#F2F2F2;" vertex="1"><mxGeometry x="1997" y="772" width="345" height="344" as="geometry" /></mxCell><mxCell id="a4e3c1e24f6ab4dc38ed6ee5e92759127884" parent="0b528082993446cf83feb2ee71b3038f" value="- location: Location" style="text;portConstraint=eastwest;overflow=hidden;rotatable=0;" vertex="1"><mxGeometry y="30.826172" width="339" height="19" as="geometry" /></mxCell><mxCell id="a508f217d29a84b24a1c60da142576308884" parent="0b528082993446cf83feb2ee71b3038f" value="- treatmentDetails: String" style="text;portConstraint=eastwest;overflow=hidden;rotatable=0;" vertex="1"><mxGeometry y="49.82617" width="339" height="19" as="geometry" /></mxCell><mxCell id="a3a8bfedbd4f24a988c0bf9a7193b99b9884" parent="0b528082993446cf83feb2ee71b3038f" value="- dateOfTreatment: String" style="text;portConstraint=eastwest;overflow=hidden;rotatable=0;" vertex="1"><mxGeometry y="68.82617" width="339" height="19" as="geometry" /></mxCell><mxCell id="ob27c6397a69540cd881c6ee9aeae3ff2884" parent="0b528082993446cf83feb2ee71b3038f" value="+ «create» MedicalRecord (location : Location, treatmentDetails : String, dateOfTreatment : String)" style="text;portConstraint=eastwest;overflow=hidden;rotatable=0;" vertex="1"><mxGeometry y="93.82617" width="339" height="37" as="geometry" /></mxCell><mxCell id="o6efdac4e023940f6a9203019dcee5ade884" parent="0b528082993446cf83feb2ee71b3038f" value="+ validateDate (date : String): boolean" style="text;portConstraint=eastwest;overflow=hidden;rotatable=0;" vertex="1"><mxGeometry y="130.82617" width="339" height="19" as="geometry" /></mxCell><mxCell id="ob18d6d72facb4ce59517c7ef18c31f18884" parent="0b528082993446cf83feb2ee71b3038f" value="+ getLocation (): Location" style="text;portConstraint=eastwest;overflow=hidden;rotatable=0;" vertex="1"><mxGeometry y="149.82617" width="339" height="19" as="geometry" /></mxCell><mxCell id="oa254f40f237943abb76517eb66901c7d884" parent="0b528082993446cf83feb2ee71b3038f" value="+ setLocation (location : Location)" style="text;portConstraint=eastwest;overflow=hidden;rotatable=0;" vertex="1"><mxGeometry y="168.82617" width="339" height="19" as="geometry" /></mxCell><mxCell id="of0fb0f4926b54a0cbfbb9459459a9124887" parent="0b528082993446cf83feb2ee71b3038f" value="+ getDescription (): String" style="text;portConstraint=eastwest;overflow=hidden;rotatable=0;" vertex="1"><mxGeometry y="187.82617" width="339" height="19" as="geometry" /></mxCell><mxCell id="tv6dfd9db105cd4bcc9c20f4f67228f4be" parent="0b528082993446cf83feb2ee71b3038f" value="{Annotation = Override&#xD;}" style="text;portConstraint=eastwest;overflow=hidden;rotatable=0;" vertex="1"><mxGeometry y="206.82617" width="339" height="19" as="geometry" /></mxCell><mxCell id="o59713ef2e28a46d3be1ac2272941975e887" parent="0b528082993446cf83feb2ee71b3038f" value="+ setDescription (treatmentDetails : String)" style="text;portConstraint=eastwest;overflow=hidden;rotatable=0;" vertex="1"><mxGeometry y="225.82617" width="339" height="19" as="geometry" /></mxCell><mxCell id="tv3a882326c67849eb9345a39fd4b70bd9" parent="0b528082993446cf83feb2ee71b3038f" value="{Annotation = Override&#xD;}" style="text;portConstraint=eastwest;overflow=hidden;rotatable=0;" vertex="1"><mxGeometry y="244.82617" width="339" height="19" as="geometry" /></mxCell><mxCell id="o43034d5de6114d928ecfa7165b488ab7887" parent="0b528082993446cf83feb2ee71b3038f" value="+ getDate (): String" style="text;portConstraint=eastwest;overflow=hidden;rotatable=0;" vertex="1"><mxGeometry y="263.82617" width="339" height="19" as="geometry" /></mxCell><mxCell id="tvd23bb55f8bbd4a06b0f65e49b6985715" parent="0b528082993446cf83feb2ee71b3038f" value="{Annotation = Override&#xD;}" style="text;portConstraint=eastwest;overflow=hidden;rotatable=0;" vertex="1"><mxGeometry y="282.82617" width="339" height="19" as="geometry" /></mxCell><mxCell id="o5cba1d11c4234b739c05de2781958ad2887" parent="0b528082993446cf83feb2ee71b3038f" value="+ setDate (dateOfTreatment : String)" style="text;portConstraint=eastwest;overflow=hidden;rotatable=0;" vertex="1"><mxGeometry y="301.82617" width="339" height="19" as="geometry" /></mxCell><mxCell id="tvbf9cfc1d5bfc42f597e883326c23ef2f" parent="0b528082993446cf83feb2ee71b3038f" value="{Annotation = Override&#xD;}" style="text;portConstraint=eastwest;overflow=hidden;rotatable=0;" vertex="1"><mxGeometry y="320.82617" width="339" height="19" as="geometry" /></mxCell><mxCell id="96c115ba983f45969decef983d8f461a" parent="1" value="FamilyRelationManager" style="swimlane;childLayout=stackLayout;horizontal=1;horizontalStack=0;resizeParent=1;resizeParentMax=0;resizeLast=0;collapsible=1;html=1;strokeColor=#555555;strokeWidth=2;shadow=1;fillColor=#F2F2F2;swimlaneFillColor=#F2F2F2;" vertex="1"><mxGeometry x="4443" y="884" width="332" height="247" as="geometry" /></mxCell><mxCell id="a98a698108bc544ee8f42e89e8177f2ce898" parent="96c115ba983f45969decef983d8f461a" value="- relationshipRecord: HashSet&lt;FamilyRelation&gt;" style="text;portConstraint=eastwest;overflow=hidden;rotatable=0;" vertex="1"><mxGeometry y="30.826172" width="326" height="19" as="geometry" /></mxCell><mxCell id="o61f55d7d30584a1d8724e6f0b6d8ce40898" parent="96c115ba983f45969decef983d8f461a" value="+ «create» FamilyRelationManager ()" style="text;portConstraint=eastwest;overflow=hidden;rotatable=0;" vertex="1"><mxGeometry y="55.82617" width="326" height="19" as="geometry" /></mxCell><mxCell id="o34ed571cbea54c2aaf5d3f337e24cd9b898" parent="96c115ba983f45969decef983d8f461a" value="+ validateRelationship (relationship : FamilyRelation): boolean" style="text;portConstraint=eastwest;overflow=hidden;rotatable=0;" vertex="1"><mxGeometry y="74.82617" width="326" height="37" as="geometry" /></mxCell><mxCell id="o4a6afafa72ac40edaaf638fa45d7eef9898" parent="96c115ba983f45969decef983d8f461a" value="+ checkInRelationship (relationship : FamilyRelation, person : Person): boolean" style="text;portConstraint=eastwest;overflow=hidden;rotatable=0;" vertex="1"><mxGeometry y="111.82617" width="326" height="37" as="geometry" /></mxCell><mxCell id="of345a0b8b547481cbba91d62212e254b898" parent="96c115ba983f45969decef983d8f461a" value="+ addRelationship (relationship : FamilyRelation)" style="text;portConstraint=eastwest;overflow=hidden;rotatable=0;" vertex="1"><mxGeometry y="148.82617" width="326" height="19" as="geometry" /></mxCell><mxCell id="o072e8d8fcd82499a97eb721f8f7d1f94898" parent="96c115ba983f45969decef983d8f461a" value="+ removeRelationship (relationship : FamilyRelation)" style="text;portConstraint=eastwest;overflow=hidden;rotatable=0;" vertex="1"><mxGeometry y="167.82617" width="326" height="19" as="geometry" /></mxCell><mxCell id="o4431bc63ceda45e79cb11bda1781158f898" parent="96c115ba983f45969decef983d8f461a" value="+ getRelationships (person : DisasterVictim): HashSet&lt;FamilyRelation&gt;" style="text;portConstraint=eastwest;overflow=hidden;rotatable=0;" vertex="1"><mxGeometry y="186.82617" width="326" height="37" as="geometry" /></mxCell><mxCell id="o9ff2cf32e37c4032bf954d7018dc0d4f898" parent="96c115ba983f45969decef983d8f461a" value="+ getRelationshipRecord (): HashSet&lt;FamilyRelation&gt;" style="text;portConstraint=eastwest;overflow=hidden;rotatable=0;" vertex="1"><mxGeometry y="223.82617" width="326" height="19" as="geometry" /></mxCell><mxCell id="eb29e3c7e169436a82db92459a79610a" parent="1" value="" style="startArrow=diamondThin;startFill=1;endArrow=none;endFill=0;html=1;strokeColor=#555555;strokeWidth=2;shadow=1;fillColor=#F2F2F2;swimlaneFillColor=#F2F2F2;" edge="1" source="fff52bec01ae4937989dea83e6d3be32" target="25f7f689f8f9418192466644001ab1a7"><mxGeometry x="4166" y="773" width="81.72412" height="92" as="geometry"><mxPoint x="4206" y="864" as="sourcePoint" /><mxPoint x="4207" y="773" as="targetPoint" /></mxGeometry></mxCell><mxCell id="bc0c8175e8894ebc877ddcf241e0f6d5" parent="1" value="" style="startArrow=diamondThin;startFill=1;endArrow=none;endFill=0;html=1;strokeColor=#555555;strokeWidth=2;shadow=1;fillColor=#F2F2F2;swimlaneFillColor=#F2F2F2;" edge="1" source="d045cb5ec8c54123849e0aa820bfa537" target="ee0ce0a8843e405abab6cd75a5e38129"><mxGeometry x="802" y="1290" width="92" height="111" as="geometry"><mxPoint x="802" y="1375" as="sourcePoint" /><mxPoint x="893" y="1315" as="targetPoint" /><Array as="points"><mxPoint x="847.5" y="1375" /><mxPoint x="847.5" y="1315" /></Array></mxGeometry></mxCell><mxCell id="63f4edc3442f407e9ab8ce2f62d183bd" parent="1" value="" style="endArrow=block;startArrow=none;endFill=0;startFill=0;html=1;strokeColor=#555555;strokeWidth=2;shadow=1;fillColor=#F2F2F2;swimlaneFillColor=#F2F2F2;" edge="1" source="ee0ce0a8843e405abab6cd75a5e38129" target="834f4651591741dd9462f2b35a019e71"><mxGeometry x="944" y="671" width="78" height="111" as="geometry"><mxPoint x="1012" y="772" as="sourcePoint" /><mxPoint x="954" y="681" as="targetPoint" /><Array as="points"><mxPoint x="1012" y="726.5" /><mxPoint x="954" y="726.5" /></Array></mxGeometry></mxCell><mxCell id="fa57f72a88044f329dc4958b7447c728" parent="1" value="" style="endArrow=block;startArrow=none;endFill=0;startFill=0;dashed=1;html=1;strokeColor=#555555;strokeWidth=2;shadow=1;fillColor=#F2F2F2;swimlaneFillColor=#F2F2F2;" edge="1" source="ee0ce0a8843e405abab6cd75a5e38129" target="3d5674dcc09d41d1b36991e120568cde"><mxGeometry x="1062" y="653" width="713" height="129" as="geometry"><mxPoint x="1072" y="772" as="sourcePoint" /><mxPoint x="1765" y="663" as="targetPoint" /><Array as="points"><mxPoint x="1072" y="717.5" /><mxPoint x="1765" y="717.5" /></Array></mxGeometry></mxCell><mxCell id="58ddbc87eca14d22b132e61b48adf477" parent="1" value="" style="startArrow=diamondThin;startFill=1;endArrow=none;endFill=0;html=1;strokeColor=#555555;strokeWidth=2;shadow=1;fillColor=#F2F2F2;swimlaneFillColor=#F2F2F2;" edge="1" source="fff52bec01ae4937989dea83e6d3be32" target="96c115ba983f45969decef983d8f461a"><mxGeometry x="4364" y="982" width="80.191895" height="58.913086" as="geometry"><mxPoint x="4364" y="1007" as="sourcePoint" /><mxPoint x="4443" y="1008" as="targetPoint" /></mxGeometry></mxCell><mxCell id="557efd1b93ca4ae19a50e643efb7370f" parent="1" value="MedicalRecordsPopup" style="swimlane;childLayout=stackLayout;horizontal=1;horizontalStack=0;resizeParent=1;resizeParentMax=0;resizeLast=0;collapsible=1;html=1;strokeColor=#555555;strokeWidth=2;shadow=1;fillColor=#F2F2F2;swimlaneFillColor=#F2F2F2;" vertex="1"><mxGeometry x="447" y="907" width="352" height="318" as="geometry" /></mxCell><mxCell id="ac9fe00a618874dccaa212489b1c957aa881" parent="557efd1b93ca4ae19a50e643efb7370f" value="- parentWindow: DisasterVictimPage" style="text;portConstraint=eastwest;overflow=hidden;rotatable=0;" vertex="1"><mxGeometry y="30.826172" width="346" height="19" as="geometry" /></mxCell><mxCell id="a4e326f4174164bbcba9458113eafa32e881" parent="557efd1b93ca4ae19a50e643efb7370f" value="- frame: JFrame" style="text;portConstraint=eastwest;overflow=hidden;rotatable=0;" vertex="1"><mxGeometry y="49.82617" width="346" height="19" as="geometry" /></mxCell><mxCell id="a1859903cdee84d36aee8dc72f55d0aa7881" parent="557efd1b93ca4ae19a50e643efb7370f" value="- containedTableModel: DefaultTableModel" style="text;portConstraint=eastwest;overflow=hidden;rotatable=0;" vertex="1"><mxGeometry y="68.82617" width="346" height="19" as="geometry" /></mxCell><mxCell id="a9feb823989244931ac84300caf67052b881" parent="557efd1b93ca4ae19a50e643efb7370f" value="- containedTable: JTable" style="text;portConstraint=eastwest;overflow=hidden;rotatable=0;" vertex="1"><mxGeometry y="87.82617" width="346" height="19" as="geometry" /></mxCell><mxCell id="a3b8a84362ac841f59c5c59d1e2243d90882" parent="557efd1b93ca4ae19a50e643efb7370f" value="- selectedVictim: DisasterVictim" style="text;portConstraint=eastwest;overflow=hidden;rotatable=0;" vertex="1"><mxGeometry y="106.82617" width="346" height="19" as="geometry" /></mxCell><mxCell id="a3703d0b02b034fbbb3d6d1acf80c5bd6882" parent="557efd1b93ca4ae19a50e643efb7370f" value="- location: Location" style="text;portConstraint=eastwest;overflow=hidden;rotatable=0;" vertex="1"><mxGeometry y="125.82617" width="346" height="19" as="geometry" /></mxCell><mxCell id="o1657aa64866d4d0097d336283e7f7c26882" parent="557efd1b93ca4ae19a50e643efb7370f" value="+ «create» MedicalRecordsPopup (records : ArrayList&lt;MedicalRecord&gt;, shelters : ArrayList&lt;Location&gt;, victimTable : JTable, tableModel : DefaultTableModel, victims : ArrayList&lt;DisasterVictim&gt;, parentWindow : DisasterVictimPage)" style="text;portConstraint=eastwest;overflow=hidden;rotatable=0;" vertex="1"><mxGeometry y="150.82617" width="346" height="89" as="geometry" /></mxCell><mxCell id="o0e083729348443feb473da2ceef12104883" parent="557efd1b93ca4ae19a50e643efb7370f" value="- refreshMedicalRecordTable (records : ArrayList&lt;MedicalRecord&gt;, containedTable : DefaultTableModel)" style="text;portConstraint=eastwest;overflow=hidden;rotatable=0;" vertex="1"><mxGeometry y="239.82617" width="346" height="37" as="geometry" /></mxCell><mxCell id="od3938e3aab0a4e8480a4a3cc192b8e17883" parent="557efd1b93ca4ae19a50e643efb7370f" value="- findMedicalRecordByName (name : String, records : ArrayList&lt;MedicalRecord&gt;): MedicalRecord" style="text;portConstraint=eastwest;overflow=hidden;rotatable=0;" vertex="1"><mxGeometry y="276.82617" width="346" height="37" as="geometry" /></mxCell><mxCell id="834f4651591741dd9462f2b35a019e71" parent="1" value="Person" style="swimlane;childLayout=stackLayout;horizontal=1;horizontalStack=0;resizeParent=1;resizeParentMax=0;resizeLast=0;collapsible=1;html=1;strokeColor=#555555;strokeWidth=2;shadow=1;fillColor=#F2F2F2;swimlaneFillColor=#F2F2F2;" vertex="1"><mxGeometry x="783" y="226" width="341" height="455" as="geometry" /></mxCell><mxCell id="aefe410b8b604439e9a7b064764b3128f866" parent="834f4651591741dd9462f2b35a019e71" value="- firstName: String" style="text;portConstraint=eastwest;overflow=hidden;rotatable=0;" vertex="1"><mxGeometry y="30.826172" width="335" height="19" as="geometry" /></mxCell><mxCell id="a7f54690e70df40adbf17205cbb709c5e866" parent="834f4651591741dd9462f2b35a019e71" value="- lastName: String" style="text;portConstraint=eastwest;overflow=hidden;rotatable=0;" vertex="1"><mxGeometry y="49.82617" width="335" height="19" as="geometry" /></mxCell><mxCell id="ab0e15d4266334f46b45da448650c3673866" parent="834f4651591741dd9462f2b35a019e71" value="- familyConnections: HashSet&lt;FamilyRelation&gt;" style="text;portConstraint=eastwest;overflow=hidden;rotatable=0;" vertex="1"><mxGeometry y="68.82617" width="335" height="19" as="geometry" /></mxCell><mxCell id="af3080e4b6b3f416eb5fbbe11b3991d13867" parent="834f4651591741dd9462f2b35a019e71" value="- genderPronoun: String" style="text;portConstraint=eastwest;overflow=hidden;rotatable=0;" vertex="1"><mxGeometry y="87.82617" width="335" height="19" as="geometry" /></mxCell><mxCell id="a029838c717314f01bd5620f57ab2ab75867" parent="834f4651591741dd9462f2b35a019e71" value="- genderOptions: ArrayList&lt;String&gt;" style="text;portConstraint=eastwest;overflow=hidden;rotatable=0;" vertex="1"><mxGeometry y="106.82617" width="335" height="19" as="geometry" /></mxCell><mxCell id="o80bef93a8647491ab97b1511874874d6867" parent="834f4651591741dd9462f2b35a019e71" value="+ «create» Person (firstName : String, lastName : String, genderPronoun : String)" style="text;portConstraint=eastwest;overflow=hidden;rotatable=0;" vertex="1"><mxGeometry y="131.82617" width="335" height="37" as="geometry" /></mxCell><mxCell id="o08dd7ca8709a44d5ae21ac19cfcbbe0b867" parent="834f4651591741dd9462f2b35a019e71" value="+ readFile (): ArrayList&lt;String&gt;" style="text;portConstraint=eastwest;overflow=hidden;rotatable=0;" vertex="1"><mxGeometry y="168.82617" width="335" height="19" as="geometry" /></mxCell><mxCell id="o1b1af04e7c0a4ab39c9bc622e74999e0867" parent="834f4651591741dd9462f2b35a019e71" value="+ setGender (genderPronoun : String)" style="text;portConstraint=eastwest;overflow=hidden;rotatable=0;" vertex="1"><mxGeometry y="187.82617" width="335" height="19" as="geometry" /></mxCell><mxCell id="o23eabd96713448eaa3e0d812d2643f2e867" parent="834f4651591741dd9462f2b35a019e71" value="+ getFirstName (): String" style="text;portConstraint=eastwest;overflow=hidden;rotatable=0;" vertex="1"><mxGeometry y="206.82617" width="335" height="19" as="geometry" /></mxCell><mxCell id="of15a9346127e4d3293aad5f9fdd36763867" parent="834f4651591741dd9462f2b35a019e71" value="+ setFirstName (firstName : String)" style="text;portConstraint=eastwest;overflow=hidden;rotatable=0;" vertex="1"><mxGeometry y="225.82617" width="335" height="19" as="geometry" /></mxCell><mxCell id="o1cb736be529c4914967db0c68481a5a3867" parent="834f4651591741dd9462f2b35a019e71" value="+ getLastName (): String" style="text;portConstraint=eastwest;overflow=hidden;rotatable=0;" vertex="1"><mxGeometry y="244.82617" width="335" height="19" as="geometry" /></mxCell><mxCell id="o3d2853bdb35d4abdba5cabe8a03360bb867" parent="834f4651591741dd9462f2b35a019e71" value="+ setLastName (lastName : String)" style="text;portConstraint=eastwest;overflow=hidden;rotatable=0;" vertex="1"><mxGeometry y="263.82617" width="335" height="19" as="geometry" /></mxCell><mxCell id="o2632625c07574dc9b837418af657644b867" parent="834f4651591741dd9462f2b35a019e71" value="+ getGender (): String" style="text;portConstraint=eastwest;overflow=hidden;rotatable=0;" vertex="1"><mxGeometry y="282.82617" width="335" height="19" as="geometry" /></mxCell><mxCell id="o576660155328475bad458fc684baa43a867" parent="834f4651591741dd9462f2b35a019e71" value="+ getGenderOptions (): ArrayList&lt;String&gt;" style="text;portConstraint=eastwest;overflow=hidden;rotatable=0;" vertex="1"><mxGeometry y="301.82617" width="335" height="19" as="geometry" /></mxCell><mxCell id="o2b638130c1794099bda3a7f438a9fa65867" parent="834f4651591741dd9462f2b35a019e71" value="+ getFamilyConnections (): HashSet&lt;FamilyRelation&gt;" style="text;portConstraint=eastwest;overflow=hidden;rotatable=0;" vertex="1"><mxGeometry y="320.82617" width="335" height="19" as="geometry" /></mxCell><mxCell id="o7cdbac0fa4f24b58a37bb0da27362a55867" parent="834f4651591741dd9462f2b35a019e71" value="+ setFamilyConnections (familyConnections : HashSet&lt;FamilyRelation&gt;)" style="text;portConstraint=eastwest;overflow=hidden;rotatable=0;" vertex="1"><mxGeometry y="339.82617" width="335" height="37" as="geometry" /></mxCell><mxCell id="o57525c590a054b08b3c4a24cc9840858867" parent="834f4651591741dd9462f2b35a019e71" value="+ addFamilyConnection (familyConnection : FamilyRelation, manager : FamilyRelationManager)" style="text;portConstraint=eastwest;overflow=hidden;rotatable=0;" vertex="1"><mxGeometry y="376.82617" width="335" height="37" as="geometry" /></mxCell><mxCell id="ocb918ce71b3f43d5b593a673a39bde13868" parent="834f4651591741dd9462f2b35a019e71" value="+ removeFamilyConnection (familyConnection : FamilyRelation)" style="text;portConstraint=eastwest;overflow=hidden;rotatable=0;" vertex="1"><mxGeometry y="413.82617" width="335" height="37" as="geometry" /></mxCell><mxCell id="35cc152a93d341f7ab0a9d84c733f28a" parent="1" value="Inquirer" style="swimlane;childLayout=stackLayout;horizontal=1;horizontalStack=0;resizeParent=1;resizeParentMax=0;resizeLast=0;collapsible=1;html=1;strokeColor=#555555;strokeWidth=2;shadow=1;fillColor=#F2F2F2;swimlaneFillColor=#F2F2F2;" vertex="1"><mxGeometry x="2380" y="772" width="347" height="249" as="geometry" /></mxCell><mxCell id="a3dc79a8e786844eb81266c7589a3ec91905" parent="35cc152a93d341f7ab0a9d84c733f28a" value="- INFO: String" style="text;portConstraint=eastwest;overflow=hidden;rotatable=0;" vertex="1"><mxGeometry y="30.826172" width="341" height="19" as="geometry" /></mxCell><mxCell id="ae5ab29ff5aba47deb1bcd6d9da5f4fd1905" parent="35cc152a93d341f7ab0a9d84c733f28a" value="- servicesPhone: String" style="text;portConstraint=eastwest;overflow=hidden;rotatable=0;" vertex="1"><mxGeometry y="49.82617" width="341" height="19" as="geometry" /></mxCell><mxCell id="o5d9ec4d448a14fa18750b641d2bd4bca905" parent="35cc152a93d341f7ab0a9d84c733f28a" value="+ «create» Inquirer (firstName : String, lastName : String, servicesPhone : String)" style="text;portConstraint=eastwest;overflow=hidden;rotatable=0;" vertex="1"><mxGeometry y="74.82617" width="341" height="37" as="geometry" /></mxCell><mxCell id="od6d959ba20d341afbd8c2552bf3da3c2905" parent="35cc152a93d341f7ab0a9d84c733f28a" value="+ setDescription (INFO : String)" style="text;portConstraint=eastwest;overflow=hidden;rotatable=0;" vertex="1"><mxGeometry y="111.82617" width="341" height="19" as="geometry" /></mxCell><mxCell id="obcd5cd75a6124e249b8e42702d473d40905" parent="35cc152a93d341f7ab0a9d84c733f28a" value="+ getDescription (): String" style="text;portConstraint=eastwest;overflow=hidden;rotatable=0;" vertex="1"><mxGeometry y="130.82617" width="341" height="19" as="geometry" /></mxCell><mxCell id="o825394fba6034ce899f5dbd17ee64b3a905" parent="35cc152a93d341f7ab0a9d84c733f28a" value="+ getServicesPhone (): String" style="text;portConstraint=eastwest;overflow=hidden;rotatable=0;" vertex="1"><mxGeometry y="149.82617" width="341" height="19" as="geometry" /></mxCell><mxCell id="oc2cc22414b084e348430426d85b9baa9905" parent="35cc152a93d341f7ab0a9d84c733f28a" value="+ setServicesPhone (servicesPhone : String)" style="text;portConstraint=eastwest;overflow=hidden;rotatable=0;" vertex="1"><mxGeometry y="168.82617" width="341" height="19" as="geometry" /></mxCell><mxCell id="od004e3f834a845d7ba3fdbe6a617ff60905" parent="35cc152a93d341f7ab0a9d84c733f28a" value="+ writeFile ()" style="text;portConstraint=eastwest;overflow=hidden;rotatable=0;" vertex="1"><mxGeometry y="187.82617" width="341" height="19" as="geometry" /></mxCell><mxCell id="of68a0de8875041b0b3a83dfee8c0b06d905" parent="35cc152a93d341f7ab0a9d84c733f28a" value="+ mountFile ()" style="text;portConstraint=eastwest;overflow=hidden;rotatable=0;" vertex="1"><mxGeometry y="206.82617" width="341" height="19" as="geometry" /></mxCell><mxCell id="o65552bc79fc545e6ad820e33dbc0d254905" parent="35cc152a93d341f7ab0a9d84c733f28a" value="+ dismountFile ()" style="text;portConstraint=eastwest;overflow=hidden;rotatable=0;" vertex="1"><mxGeometry y="225.82617" width="341" height="19" as="geometry" /></mxCell><mxCell id="94b9a172314447e2ab6db5b6a07945e5" parent="1" value="LocationManagementPage" style="swimlane;childLayout=stackLayout;horizontal=1;horizontalStack=0;resizeParent=1;resizeParentMax=0;resizeLast=0;collapsible=1;html=1;strokeColor=#555555;strokeWidth=2;shadow=1;fillColor=#F2F2F2;swimlaneFillColor=#F2F2F2;" vertex="1"><mxGeometry x="346" y="2072" width="332" height="135" as="geometry" /></mxCell><mxCell id="a30cf0fbd75d94d11a5b38c5dd66dd03c895" parent="94b9a172314447e2ab6db5b6a07945e5" value="- inventoryTableModel: DefaultTableModel" style="text;portConstraint=eastwest;overflow=hidden;rotatable=0;" vertex="1"><mxGeometry y="30.826172" width="326" height="19" as="geometry" /></mxCell><mxCell id="a03af7743c99a4c0db76ce220af09cf06895" parent="94b9a172314447e2ab6db5b6a07945e5" value="- inventoryTable: JTable" style="text;portConstraint=eastwest;overflow=hidden;rotatable=0;" vertex="1"><mxGeometry y="49.82617" width="326" height="19" as="geometry" /></mxCell><mxCell id="of9856cc401004917b755536ceff0aee5895" parent="94b9a172314447e2ab6db5b6a07945e5" value="+ «create» LocationManagementPage (workLocation : Location)" style="text;portConstraint=eastwest;overflow=hidden;rotatable=0;" vertex="1"><mxGeometry y="74.82617" width="326" height="37" as="geometry" /></mxCell><mxCell id="ob0e3975a2c1a48dba35094302316b6e3895" parent="94b9a172314447e2ab6db5b6a07945e5" value="- updateTable (workLocation : Location)" style="text;portConstraint=eastwest;overflow=hidden;rotatable=0;" vertex="1"><mxGeometry y="111.82617" width="326" height="19" as="geometry" /></mxCell><mxCell id="997e78ea9f1b4cecabda6c50ff4ac3cf" parent="1" value="FamilyConnectionsPopup" style="swimlane;childLayout=stackLayout;horizontal=1;horizontalStack=0;resizeParent=1;resizeParentMax=0;resizeLast=0;collapsible=1;html=1;strokeColor=#555555;strokeWidth=2;shadow=1;fillColor=#F2F2F2;swimlaneFillColor=#F2F2F2;" vertex="1"><mxGeometry x="907" y="1695" width="348" height="281" as="geometry" /></mxCell><mxCell id="a6cdf80fe07aa480c9520e60d8238ec86901" parent="997e78ea9f1b4cecabda6c50ff4ac3cf" value="- parentWindow: DisasterVictimPage" style="text;portConstraint=eastwest;overflow=hidden;rotatable=0;" vertex="1"><mxGeometry y="30.826172" width="342" height="19" as="geometry" /></mxCell><mxCell id="a6f8f53fb1f824cc8a6c59aabc680ccf5901" parent="997e78ea9f1b4cecabda6c50ff4ac3cf" value="- frame: JFrame" style="text;portConstraint=eastwest;overflow=hidden;rotatable=0;" vertex="1"><mxGeometry y="49.82617" width="342" height="19" as="geometry" /></mxCell><mxCell id="ab4205fe7f94c4dbc8fbd29eb98e62d4e901" parent="997e78ea9f1b4cecabda6c50ff4ac3cf" value="- containedTableModel: DefaultTableModel" style="text;portConstraint=eastwest;overflow=hidden;rotatable=0;" vertex="1"><mxGeometry y="68.82617" width="342" height="19" as="geometry" /></mxCell><mxCell id="a50d04723f5924c9bbff2db2a3faa056f902" parent="997e78ea9f1b4cecabda6c50ff4ac3cf" value="- containedTable: JTable" style="text;portConstraint=eastwest;overflow=hidden;rotatable=0;" vertex="1"><mxGeometry y="87.82617" width="342" height="19" as="geometry" /></mxCell><mxCell id="ab919c4111bf3494c849009d0438e7226902" parent="997e78ea9f1b4cecabda6c50ff4ac3cf" value="- addButton: JButton" style="text;portConstraint=eastwest;overflow=hidden;rotatable=0;" vertex="1"><mxGeometry y="106.82617" width="342" height="19" as="geometry" /></mxCell><mxCell id="ac5df73a275f541479baa75c004e2fd93902" parent="997e78ea9f1b4cecabda6c50ff4ac3cf" value="- lastSelectedPerson: DisasterVictim" style="text;portConstraint=eastwest;overflow=hidden;rotatable=0;" vertex="1"><mxGeometry y="125.82617" width="342" height="19" as="geometry" /></mxCell><mxCell id="of82c9c97441143208c08b0b4d4a603a4902" parent="997e78ea9f1b4cecabda6c50ff4ac3cf" value="+ «create» FamilyConnectionsPopup (connections : HashSet&lt;FamilyRelation&gt;, victimTable : JTable, tableModel : DefaultTableModel, victims : ArrayList&lt;DisasterVictim&gt;, familyManager : FamilyRelationManager, locations : ArrayList&lt;Location&gt;, parentWindow : DisasterVictimPage)" style="text;portConstraint=eastwest;overflow=hidden;rotatable=0;" vertex="1"><mxGeometry y="150.82617" width="342" height="89" as="geometry" /></mxCell><mxCell id="o978bf43443a84abbbb3bed2f3602bc05903" parent="997e78ea9f1b4cecabda6c50ff4ac3cf" value="- refreshFamilyRelationTable (connections : HashSet&lt;FamilyRelation&gt;, containedTable : DefaultTableModel)" style="text;portConstraint=eastwest;overflow=hidden;rotatable=0;" vertex="1"><mxGeometry y="239.82617" width="342" height="37" as="geometry" /></mxCell><mxCell id="3b290e1c74c6403ca8c94c9e3a7dc1ab" parent="1" value="" style="startArrow=diamondThin;startFill=1;endArrow=none;endFill=0;html=1;strokeColor=#555555;strokeWidth=2;shadow=1;fillColor=#F2F2F2;swimlaneFillColor=#F2F2F2;" edge="1" source="997e78ea9f1b4cecabda6c50ff4ac3cf" target="2de8c59124d943a096c9024ee0110176"><mxGeometry x="142" y="1233" width="980" height="463" as="geometry"><mxPoint x="1081" y="1695" as="sourcePoint" /><mxPoint x="182" y="1233" as="targetPoint" /><Array as="points"><mxPoint x="1081" y="1464" /><mxPoint x="182" y="1464" /></Array></mxGeometry></mxCell><mxCell id="a61223187ff74ef4ab1b0c2c9d33daf2" parent="1" value="" style="endArrow=block;startArrow=none;endFill=0;startFill=0;dashed=1;html=1;strokeColor=#555555;strokeWidth=2;shadow=1;fillColor=#F2F2F2;swimlaneFillColor=#F2F2F2;" edge="1" source="35cc152a93d341f7ab0a9d84c733f28a" target="3d5674dcc09d41d1b36991e120568cde"><mxGeometry x="1755" y="653" width="809" height="129" as="geometry"><mxPoint x="2554" y="772" as="sourcePoint" /><mxPoint x="1765" y="663" as="targetPoint" /><Array as="points"><mxPoint x="2554" y="717.5" /><mxPoint x="1765" y="717.5" /></Array></mxGeometry></mxCell><mxCell id="c04a7378e4444ff29a1f99a9c70c53fa" parent="1" value="Inquiry" style="swimlane;childLayout=stackLayout;horizontal=1;horizontalStack=0;resizeParent=1;resizeParentMax=0;resizeLast=0;collapsible=1;html=1;strokeColor=#555555;strokeWidth=2;shadow=1;fillColor=#F2F2F2;swimlaneFillColor=#F2F2F2;" vertex="1"><mxGeometry x="1607" y="772" width="352" height="418" as="geometry" /></mxCell><mxCell id="ab8db780226be4c079b578c325481e1e4879" parent="c04a7378e4444ff29a1f99a9c70c53fa" value="- missingPerson: DisasterVictim" style="text;portConstraint=eastwest;overflow=hidden;rotatable=0;" vertex="1"><mxGeometry y="30.826172" width="346" height="19" as="geometry" /></mxCell><mxCell id="a72d2a099c1d448a69b04c61001b20a56879" parent="c04a7378e4444ff29a1f99a9c70c53fa" value="- dateOfInquiry: String" style="text;portConstraint=eastwest;overflow=hidden;rotatable=0;" vertex="1"><mxGeometry y="49.82617" width="346" height="19" as="geometry" /></mxCell><mxCell id="a1896e04ab31149c79b669189aca5e994879" parent="c04a7378e4444ff29a1f99a9c70c53fa" value="- description: String" style="text;portConstraint=eastwest;overflow=hidden;rotatable=0;" vertex="1"><mxGeometry y="68.82617" width="346" height="19" as="geometry" /></mxCell><mxCell id="a539625085a19494fa9bba101c14f4216880" parent="c04a7378e4444ff29a1f99a9c70c53fa" value="- lastKnownLocation: Location" style="text;portConstraint=eastwest;overflow=hidden;rotatable=0;" vertex="1"><mxGeometry y="87.82617" width="346" height="19" as="geometry" /></mxCell><mxCell id="ob1d76eb8ae044af59340cb6c58a88196880" parent="c04a7378e4444ff29a1f99a9c70c53fa" value="+ «create» Inquiry (missingPerson : DisasterVictim, dateOfInquiry : String, description : String, lastKnownLocation : Location)" style="text;portConstraint=eastwest;overflow=hidden;rotatable=0;" vertex="1"><mxGeometry y="112.82617" width="346" height="54" as="geometry" /></mxCell><mxCell id="o6ebf7026db814bd1a50e658dbcc6c52e880" parent="c04a7378e4444ff29a1f99a9c70c53fa" value="+ validateDate (date : String): boolean" style="text;portConstraint=eastwest;overflow=hidden;rotatable=0;" vertex="1"><mxGeometry y="166.82617" width="346" height="19" as="geometry" /></mxCell><mxCell id="o2ed756fe5fdc47829245d94b07dc283f880" parent="c04a7378e4444ff29a1f99a9c70c53fa" value="+ getMissingPerson (): DisasterVictim" style="text;portConstraint=eastwest;overflow=hidden;rotatable=0;" vertex="1"><mxGeometry y="185.82617" width="346" height="19" as="geometry" /></mxCell><mxCell id="oba61da8b561d4471b1adb780e23b567f880" parent="c04a7378e4444ff29a1f99a9c70c53fa" value="+ setMissingPerson (missingPerson : DisasterVictim)" style="text;portConstraint=eastwest;overflow=hidden;rotatable=0;" vertex="1"><mxGeometry y="204.82617" width="346" height="19" as="geometry" /></mxCell><mxCell id="o247f830296814fe4bef5ec8c040b2d4a880" parent="c04a7378e4444ff29a1f99a9c70c53fa" value="+ getLastKnownLocation (): Location" style="text;portConstraint=eastwest;overflow=hidden;rotatable=0;" vertex="1"><mxGeometry y="223.82617" width="346" height="19" as="geometry" /></mxCell><mxCell id="o86c8b2eb25c6432e84931d01e6caf429880" parent="c04a7378e4444ff29a1f99a9c70c53fa" value="+ setLastKnownLocation (lastKnownLocation : Location)" style="text;portConstraint=eastwest;overflow=hidden;rotatable=0;" vertex="1"><mxGeometry y="242.82617" width="346" height="19" as="geometry" /></mxCell><mxCell id="ob73355ed5e4b437aaddcb2a1c5fb52cc880" parent="c04a7378e4444ff29a1f99a9c70c53fa" value="+ getDescription (): String" style="text;portConstraint=eastwest;overflow=hidden;rotatable=0;" vertex="1"><mxGeometry y="261.82617" width="346" height="19" as="geometry" /></mxCell><mxCell id="tvb7345f9afb8442d999520fc70556d828" parent="c04a7378e4444ff29a1f99a9c70c53fa" value="{Annotation = Override&#xD;}" style="text;portConstraint=eastwest;overflow=hidden;rotatable=0;" vertex="1"><mxGeometry y="280.82617" width="346" height="19" as="geometry" /></mxCell><mxCell id="oe677405147fb4d3dbacfd50c25367051880" parent="c04a7378e4444ff29a1f99a9c70c53fa" value="+ setDescription (description : String)" style="text;portConstraint=eastwest;overflow=hidden;rotatable=0;" vertex="1"><mxGeometry y="299.82617" width="346" height="19" as="geometry" /></mxCell><mxCell id="tve9b075b7b4ef4ff3a14bf1e69c69b2ba" parent="c04a7378e4444ff29a1f99a9c70c53fa" value="{Annotation = Override&#xD;}" style="text;portConstraint=eastwest;overflow=hidden;rotatable=0;" vertex="1"><mxGeometry y="318.82617" width="346" height="19" as="geometry" /></mxCell><mxCell id="o68225fee75334704982d388e37401de9880" parent="c04a7378e4444ff29a1f99a9c70c53fa" value="+ setDate (dateOfInquiry : String)" style="text;portConstraint=eastwest;overflow=hidden;rotatable=0;" vertex="1"><mxGeometry y="337.82617" width="346" height="19" as="geometry" /></mxCell><mxCell id="tve79ecc8981094a19afe0b6b8c401f760" parent="c04a7378e4444ff29a1f99a9c70c53fa" value="{Annotation = Override&#xD;}" style="text;portConstraint=eastwest;overflow=hidden;rotatable=0;" vertex="1"><mxGeometry y="356.82617" width="346" height="19" as="geometry" /></mxCell><mxCell id="o99efb9376dd2475c8540ae4e9ca0a718880" parent="c04a7378e4444ff29a1f99a9c70c53fa" value="+ getDate (): String" style="text;portConstraint=eastwest;overflow=hidden;rotatable=0;" vertex="1"><mxGeometry y="375.82617" width="346" height="19" as="geometry" /></mxCell><mxCell id="tv3e38ec5bb9e94d6599d0dddf238c3448" parent="c04a7378e4444ff29a1f99a9c70c53fa" value="{Annotation = Override&#xD;}" style="text;portConstraint=eastwest;overflow=hidden;rotatable=0;" vertex="1"><mxGeometry y="394.82617" width="346" height="19" as="geometry" /></mxCell><mxCell id="5112fefe1586475f8e3accc46f299c72" parent="1" value="InquirySQLPage" style="swimlane;childLayout=stackLayout;horizontal=1;horizontalStack=0;resizeParent=1;resizeParentMax=0;resizeLast=0;collapsible=1;html=1;strokeColor=#555555;strokeWidth=2;shadow=1;fillColor=#F2F2F2;swimlaneFillColor=#F2F2F2;" vertex="1"><mxGeometry x="3221" y="451" width="354" height="401" as="geometry" /></mxCell><mxCell id="aa8dd1f333c664ea58d7928c14793e38d876" parent="5112fefe1586475f8e3accc46f299c72" value="- inquiryTableModel: DefaultTableModel" style="text;portConstraint=eastwest;overflow=hidden;rotatable=0;" vertex="1"><mxGeometry y="30.826172" width="348" height="19" as="geometry" /></mxCell><mxCell id="ab78977814c8b42039ebc9e48afc61ca9876" parent="5112fefe1586475f8e3accc46f299c72" value="- inquiryTable: JTable" style="text;portConstraint=eastwest;overflow=hidden;rotatable=0;" vertex="1"><mxGeometry y="49.82617" width="348" height="19" as="geometry" /></mxCell><mxCell id="adc709ba243964cfd90dd15f489b64a1b876" parent="5112fefe1586475f8e3accc46f299c72" value="- logTableModel: DefaultTableModel" style="text;portConstraint=eastwest;overflow=hidden;rotatable=0;" vertex="1"><mxGeometry y="68.82617" width="348" height="19" as="geometry" /></mxCell><mxCell id="adc5c4781d51645559ff79ad7af603e8e876" parent="5112fefe1586475f8e3accc46f299c72" value="- logTable: JTable" style="text;portConstraint=eastwest;overflow=hidden;rotatable=0;" vertex="1"><mxGeometry y="87.82617" width="348" height="19" as="geometry" /></mxCell><mxCell id="a031c31c67f5f4dfda2d43006edd96b29877" parent="5112fefe1586475f8e3accc46f299c72" value="- database: AccessDatabaseLogs" style="text;portConstraint=eastwest;overflow=hidden;rotatable=0;" vertex="1"><mxGeometry y="106.82617" width="348" height="19" as="geometry" /></mxCell><mxCell id="a0df61be9076d407e87bac677286f2dbc877" parent="5112fefe1586475f8e3accc46f299c72" value="- saveEditsButton: JButton" style="text;portConstraint=eastwest;overflow=hidden;rotatable=0;" vertex="1"><mxGeometry y="125.82617" width="348" height="19" as="geometry" /></mxCell><mxCell id="a3f2093b7f76948498bdcd0d8d5f6a33b877" parent="5112fefe1586475f8e3accc46f299c72" value="- discardEditsButton: JButton" style="text;portConstraint=eastwest;overflow=hidden;rotatable=0;" vertex="1"><mxGeometry y="144.82617" width="348" height="19" as="geometry" /></mxCell><mxCell id="ab415706d08684989a01cfc135b73e1cd877" parent="5112fefe1586475f8e3accc46f299c72" value="- removeButton: JButton" style="text;portConstraint=eastwest;overflow=hidden;rotatable=0;" vertex="1"><mxGeometry y="163.82617" width="348" height="19" as="geometry" /></mxCell><mxCell id="o36197d5d18154323820b4c85ca9827fb877" parent="5112fefe1586475f8e3accc46f299c72" value="+ «create» InquirySQLPage ()" style="text;portConstraint=eastwest;overflow=hidden;rotatable=0;" vertex="1"><mxGeometry y="188.82617" width="348" height="19" as="geometry" /></mxCell><mxCell id="ofdb0ccfd9bec4b13b0d9197e2c84e614878" parent="5112fefe1586475f8e3accc46f299c72" value="- createPanelWithHeading (title : String, scrollPane : JScrollPane): JPanel" style="text;portConstraint=eastwest;overflow=hidden;rotatable=0;" vertex="1"><mxGeometry y="207.82617" width="348" height="37" as="geometry" /></mxCell><mxCell id="o705c9c705c464376810fab9cdceccec3878" parent="5112fefe1586475f8e3accc46f299c72" value="- updateInquiryTable ()" style="text;portConstraint=eastwest;overflow=hidden;rotatable=0;" vertex="1"><mxGeometry y="244.82617" width="348" height="19" as="geometry" /></mxCell><mxCell id="of801fbc88e8e440187fa982eacb8cb03878" parent="5112fefe1586475f8e3accc46f299c72" value="- updateLogTable ()" style="text;portConstraint=eastwest;overflow=hidden;rotatable=0;" vertex="1"><mxGeometry y="263.82617" width="348" height="19" as="geometry" /></mxCell><mxCell id="o13f2b1751ec0480eb40db19fe1dd4b34878" parent="5112fefe1586475f8e3accc46f299c72" value="- searchInquiryTable (searchText : String)" style="text;portConstraint=eastwest;overflow=hidden;rotatable=0;" vertex="1"><mxGeometry y="282.82617" width="348" height="19" as="geometry" /></mxCell><mxCell id="oa55bacf9bdc54fae97ac02473bb9a8ef878" parent="5112fefe1586475f8e3accc46f299c72" value="- searchLogTable (searchText : String)" style="text;portConstraint=eastwest;overflow=hidden;rotatable=0;" vertex="1"><mxGeometry y="301.82617" width="348" height="19" as="geometry" /></mxCell><mxCell id="o7b0b0af8d17e4dd390d567e699784a80878" parent="5112fefe1586475f8e3accc46f299c72" value="- validatePhone (phoneNumber : String): boolean" style="text;portConstraint=eastwest;overflow=hidden;rotatable=0;" vertex="1"><mxGeometry y="320.82617" width="348" height="19" as="geometry" /></mxCell><mxCell id="ocb56d171e77d45cda6a2be253f0dc959878" parent="5112fefe1586475f8e3accc46f299c72" value="+ validateDate (date : String): boolean" style="text;portConstraint=eastwest;overflow=hidden;rotatable=0;" vertex="1"><mxGeometry y="339.82617" width="348" height="19" as="geometry" /></mxCell><mxCell id="oa2bf7ef6b15e45dcb697aa0d4a0adaf0878" parent="5112fefe1586475f8e3accc46f299c72" value="+ setDate (newDate : String)" style="text;portConstraint=eastwest;overflow=hidden;rotatable=0;" vertex="1"><mxGeometry y="358.82617" width="348" height="19" as="geometry" /></mxCell><mxCell id="od7a835dd19bc4412bf81a22f3cc7302a879" parent="5112fefe1586475f8e3accc46f299c72" value="+ getDate (): String" style="text;portConstraint=eastwest;overflow=hidden;rotatable=0;" vertex="1"><mxGeometry y="377.82617" width="348" height="19" as="geometry" /></mxCell><mxCell id="fff52bec01ae4937989dea83e6d3be32" parent="1" value="MenuPages" style="swimlane;childLayout=stackLayout;horizontal=1;horizontalStack=0;resizeParent=1;resizeParentMax=0;resizeLast=0;collapsible=1;html=1;strokeColor=#555555;strokeWidth=2;shadow=1;fillColor=#F2F2F2;swimlaneFillColor=#F2F2F2;" vertex="1"><mxGeometry x="4049" y="864" width="315" height="269" as="geometry" /></mxCell><mxCell id="aef673b0b8fcc49b8b919d40d34b1d3b3868" parent="fff52bec01ae4937989dea83e6d3be32" value="- tabbedPane: JTabbedPane" style="text;portConstraint=eastwest;overflow=hidden;rotatable=0;" vertex="1"><mxGeometry y="30.826172" width="309" height="19" as="geometry" /></mxCell><mxCell id="a9b8c5878dbf7451db6589343bff8bcae869" parent="fff52bec01ae4937989dea83e6d3be32" value="- locations: ArrayList&lt;Location&gt;" style="text;portConstraint=eastwest;overflow=hidden;rotatable=0;" vertex="1"><mxGeometry y="49.82617" width="309" height="19" as="geometry" /></mxCell><mxCell id="a6ba91c8ac6be4ea8a61f7ebd56563f25869" parent="fff52bec01ae4937989dea83e6d3be32" value="- victims: ArrayList&lt;DisasterVictim&gt;" style="text;portConstraint=eastwest;overflow=hidden;rotatable=0;" vertex="1"><mxGeometry y="68.82617" width="309" height="19" as="geometry" /></mxCell><mxCell id="a5a2b2e10a191408182cb5772bb53f6ee869" parent="fff52bec01ae4937989dea83e6d3be32" value="- workLocation: Location" style="text;portConstraint=eastwest;overflow=hidden;rotatable=0;" vertex="1"><mxGeometry y="87.82617" width="309" height="19" as="geometry" /></mxCell><mxCell id="af2976c75154b445ab802de689302c058869" parent="fff52bec01ae4937989dea83e6d3be32" value="- familyManager: FamilyRelationManager" style="text;portConstraint=eastwest;overflow=hidden;rotatable=0;" vertex="1"><mxGeometry y="106.82617" width="309" height="19" as="geometry" /></mxCell><mxCell id="a55fa0d00335a445c9f8d73eec16c6a64869" parent="fff52bec01ae4937989dea83e6d3be32" value="- supplyManager: SupplyManager" style="text;portConstraint=eastwest;overflow=hidden;rotatable=0;" vertex="1"><mxGeometry y="125.82617" width="309" height="19" as="geometry" /></mxCell><mxCell id="oa7de9646ff994961adb57831aac34369869" parent="fff52bec01ae4937989dea83e6d3be32" value="+ «create» MenuPages ()" style="text;portConstraint=eastwest;overflow=hidden;rotatable=0;" vertex="1"><mxGeometry y="150.82617" width="309" height="19" as="geometry" /></mxCell><mxCell id="o0c1dc26b960140159c0307c47ef5c09b869" parent="fff52bec01ae4937989dea83e6d3be32" value="- addPagesToTabbedPane ()" style="text;portConstraint=eastwest;overflow=hidden;rotatable=0;" vertex="1"><mxGeometry y="169.82617" width="309" height="19" as="geometry" /></mxCell><mxCell id="o4d3ec798ac724957b3a2fb6a14bc43ca869" parent="fff52bec01ae4937989dea83e6d3be32" value="- promptUserType ()" style="text;portConstraint=eastwest;overflow=hidden;rotatable=0;" vertex="1"><mxGeometry y="188.82617" width="309" height="19" as="geometry" /></mxCell><mxCell id="o750025478be347408a51b07c0f8f2a79869" parent="fff52bec01ae4937989dea83e6d3be32" value="- initiateSetup ()" style="text;portConstraint=eastwest;overflow=hidden;rotatable=0;" vertex="1"><mxGeometry y="207.82617" width="309" height="19" as="geometry" /></mxCell><mxCell id="ofb9ea04f90f145e6a8434b5d3bbf3c0b870" parent="fff52bec01ae4937989dea83e6d3be32" value="- getRandomGender (victim : DisasterVictim): String" style="text;portConstraint=eastwest;overflow=hidden;rotatable=0;" vertex="1"><mxGeometry y="226.82617" width="309" height="19" as="geometry" /></mxCell><mxCell id="oa1f3c030c0ff4aab92bb61c9ef7cbe92870" parent="fff52bec01ae4937989dea83e6d3be32" value="+ main (args : String)" style="text;portConstraint=eastwest;overflow=hidden;rotatable=0;" vertex="1"><mxGeometry y="245.82617" width="309" height="19" as="geometry" /></mxCell><mxCell id="25f7f689f8f9418192466644001ab1a7" parent="1" value="SupplyManager" style="swimlane;childLayout=stackLayout;horizontal=1;horizontalStack=0;resizeParent=1;resizeParentMax=0;resizeLast=0;collapsible=1;html=1;strokeColor=#555555;strokeWidth=2;shadow=1;fillColor=#F2F2F2;swimlaneFillColor=#F2F2F2;" vertex="1"><mxGeometry x="4037" y="621" width="356" height="152" as="geometry" /></mxCell><mxCell id="o3ebf768cfab9430389bbc9b6a30149ef892" parent="25f7f689f8f9418192466644001ab1a7" value="- checkSupplyAvailability (locationSupply : HashSet&lt;Supply&gt;, supply : Supply): boolean" style="text;portConstraint=eastwest;overflow=hidden;rotatable=0;" vertex="1"><mxGeometry y="36.82617" width="350" height="37" as="geometry" /></mxCell><mxCell id="ocbb5ed101ff94170baf6c0a7e50fa744892" parent="25f7f689f8f9418192466644001ab1a7" value="+ transferSupplies (person : DisasterVictim, supplies : HashSet&lt;Supply&gt;, location : Location)" style="text;portConstraint=eastwest;overflow=hidden;rotatable=0;" vertex="1"><mxGeometry y="73.82617" width="350" height="37" as="geometry" /></mxCell><mxCell id="oa9169971e81a48de9f4e96b7f84bf661893" parent="25f7f689f8f9418192466644001ab1a7" value="+ giveSupply (person : DisasterVictim, supply : Supply, location : Location)" style="text;portConstraint=eastwest;overflow=hidden;rotatable=0;" vertex="1"><mxGeometry y="110.82617" width="350" height="37" as="geometry" /></mxCell><mxCell id="d045cb5ec8c54123849e0aa820bfa537" parent="1" value="DietaryRestrictionsPopup" style="swimlane;childLayout=stackLayout;horizontal=1;horizontalStack=0;resizeParent=1;resizeParentMax=0;resizeLast=0;collapsible=1;html=1;strokeColor=#555555;strokeWidth=2;shadow=1;fillColor=#F2F2F2;swimlaneFillColor=#F2F2F2;" vertex="1"><mxGeometry x="447" y="1263" width="355" height="224" as="geometry" /></mxCell><mxCell id="aaaefb748b6524497808b31eb39d4801a888" parent="d045cb5ec8c54123849e0aa820bfa537" value="- parentWindow: DisasterVictimPage" style="text;portConstraint=eastwest;overflow=hidden;rotatable=0;" vertex="1"><mxGeometry y="30.826172" width="349" height="19" as="geometry" /></mxCell><mxCell id="a45d2f852e8e343348398fa61c6de081f888" parent="d045cb5ec8c54123849e0aa820bfa537" value="- selectedVictim: DisasterVictim" style="text;portConstraint=eastwest;overflow=hidden;rotatable=0;" vertex="1"><mxGeometry y="49.82617" width="349" height="19" as="geometry" /></mxCell><mxCell id="a9e265d8830af4938bbaf53c75ed4f6cd888" parent="d045cb5ec8c54123849e0aa820bfa537" value="- lastSelectedPerson: DisasterVictim" style="text;portConstraint=eastwest;overflow=hidden;rotatable=0;" vertex="1"><mxGeometry y="68.82617" width="349" height="19" as="geometry" /></mxCell><mxCell id="of949c4276b184e9089d829f0ec743860888" parent="d045cb5ec8c54123849e0aa820bfa537" value="«create» DietaryRestrictionsPopup (restrictions : ArrayList&lt;DietaryRestrictions&gt;, victimTable : JTable, tableModel : DefaultTableModel, victims : ArrayList&lt;DisasterVictim&gt;, locations : ArrayList&lt;Location&gt;, parentWindow : DisasterVictimPage)" style="text;portConstraint=eastwest;overflow=hidden;rotatable=0;" vertex="1"><mxGeometry y="93.82617" width="349" height="89" as="geometry" /></mxCell><mxCell id="o3e3bd429325f4558b946b2d2b0598bf4889" parent="d045cb5ec8c54123849e0aa820bfa537" value="- refreshDietaryRestrictionsTable (preferences : ArrayList&lt;DietaryRestrictions&gt;, containedTable : DefaultTableModel)" style="text;portConstraint=eastwest;overflow=hidden;rotatable=0;" vertex="1"><mxGeometry y="182.82617" width="349" height="37" as="geometry" /></mxCell><mxCell id="e20bc0d8356c41eaaa882aa8b86b1d24" parent="1" value="FamilyRelation" style="swimlane;childLayout=stackLayout;horizontal=1;horizontalStack=0;resizeParent=1;resizeParentMax=0;resizeLast=0;collapsible=1;html=1;strokeColor=#555555;strokeWidth=2;shadow=1;fillColor=#F2F2F2;swimlaneFillColor=#F2F2F2;" vertex="1"><mxGeometry x="3221" y="915" width="342" height="302" as="geometry" /></mxCell><mxCell id="a0b0bbc2502cf4dd49f087cab01383139899" parent="e20bc0d8356c41eaaa882aa8b86b1d24" value="- personOne: DisasterVictim" style="text;portConstraint=eastwest;overflow=hidden;rotatable=0;" vertex="1"><mxGeometry y="30.826172" width="336" height="19" as="geometry" /></mxCell><mxCell id="ad594919b4fd64c84a743f2d6c02a4dc3899" parent="e20bc0d8356c41eaaa882aa8b86b1d24" value="- relationshipTo: String" style="text;portConstraint=eastwest;overflow=hidden;rotatable=0;" vertex="1"><mxGeometry y="49.82617" width="336" height="19" as="geometry" /></mxCell><mxCell id="a73efd67951ae4562a2014742a17e3d1e900" parent="e20bc0d8356c41eaaa882aa8b86b1d24" value="- personTwo: DisasterVictim" style="text;portConstraint=eastwest;overflow=hidden;rotatable=0;" vertex="1"><mxGeometry y="68.82617" width="336" height="19" as="geometry" /></mxCell><mxCell id="ocbc2d84bfe214f5db4d07e3fac087144900" parent="e20bc0d8356c41eaaa882aa8b86b1d24" value="+ «create» FamilyRelation (personOne : DisasterVictim, relationshipTo : String, personTwo : DisasterVictim, manager : FamilyRelationManager)" style="text;portConstraint=eastwest;overflow=hidden;rotatable=0;" vertex="1"><mxGeometry y="93.82617" width="336" height="54" as="geometry" /></mxCell><mxCell id="o0fa0dedbf02e4db2aa9b315147071cc1900" parent="e20bc0d8356c41eaaa882aa8b86b1d24" value="+ getPersonOne (): DisasterVictim" style="text;portConstraint=eastwest;overflow=hidden;rotatable=0;" vertex="1"><mxGeometry y="147.82617" width="336" height="19" as="geometry" /></mxCell><mxCell id="o39cd09ad4ef04b0db28cff7e9d5e2123900" parent="e20bc0d8356c41eaaa882aa8b86b1d24" value="+ setPersonOne (personOne : DisasterVictim, manager : FamilyRelationManager)" style="text;portConstraint=eastwest;overflow=hidden;rotatable=0;" vertex="1"><mxGeometry y="166.82617" width="336" height="37" as="geometry" /></mxCell><mxCell id="o225ca1567d9c4a75ae8ed08c8ee0cac4900" parent="e20bc0d8356c41eaaa882aa8b86b1d24" value="+ getRelationshipTo (): String" style="text;portConstraint=eastwest;overflow=hidden;rotatable=0;" vertex="1"><mxGeometry y="203.82617" width="336" height="19" as="geometry" /></mxCell><mxCell id="o8f5471d3a31040ada748261d14614f2e900" parent="e20bc0d8356c41eaaa882aa8b86b1d24" value="+ setRelationshipTo (relationshipTo : String)" style="text;portConstraint=eastwest;overflow=hidden;rotatable=0;" vertex="1"><mxGeometry y="222.82617" width="336" height="19" as="geometry" /></mxCell><mxCell id="oe934117f93254cd0a9561538d6a8bf4f900" parent="e20bc0d8356c41eaaa882aa8b86b1d24" value="+ getPersonTwo (): DisasterVictim" style="text;portConstraint=eastwest;overflow=hidden;rotatable=0;" vertex="1"><mxGeometry y="241.82617" width="336" height="19" as="geometry" /></mxCell><mxCell id="o4b11974932b04c40b27672f0502bd7a6900" parent="e20bc0d8356c41eaaa882aa8b86b1d24" value="+ setPersonTwo (personTwo : DisasterVictim, manager : FamilyRelationManager)" style="text;portConstraint=eastwest;overflow=hidden;rotatable=0;" vertex="1"><mxGeometry y="260.82617" width="336" height="37" as="geometry" /></mxCell><mxCell id="b70f3be3de9f4b98a292f14f8e394f8b" parent="1" value="" style="startArrow=diamondThin;startFill=1;endArrow=none;endFill=0;html=1;strokeColor=#555555;strokeWidth=2;shadow=1;fillColor=#F2F2F2;swimlaneFillColor=#F2F2F2;" edge="1" source="1669e54746824fdba137027440da57fb" target="ee0ce0a8843e405abab6cd75a5e38129"><mxGeometry x="1250" y="1342" width="1972" height="58.913086" as="geometry"><mxPoint x="3221" y="1367" as="sourcePoint" /><mxPoint x="1250" y="1367" as="targetPoint" /></mxGeometry></mxCell><mxCell id="e9ccf0e71b1e4916a7a2daea11aab1cf" parent="1" value="DietaryRestriction" style="swimlane;html=1;strokeColor=#555555;strokeWidth=2;shadow=1;fillColor=#F2F2F2;swimlaneFillColor=#F2F2F2;" vertex="1"><mxGeometry x="90" y="2297" width="143" height="218" as="geometry" /></mxCell><mxCell id="af47bd9f4b3204a799e89afacd02e1be2891" parent="e9ccf0e71b1e4916a7a2daea11aab1cf" value="AVML" style="text;portConstraint=eastwest;overflow=hidden;rotatable=0;" vertex="1"><mxGeometry y="30.826172" width="138" height="18.916012" as="geometry" /></mxCell><mxCell id="a095a4069d4d1485f800f3f36fec6c2e1891" parent="e9ccf0e71b1e4916a7a2daea11aab1cf" value="DBML" style="text;portConstraint=eastwest;overflow=hidden;rotatable=0;" vertex="1"><mxGeometry y="49.742188" width="138" height="18.916012" as="geometry" /></mxCell><mxCell id="a060b241a61c1481aa299d8133f7ff041891" parent="e9ccf0e71b1e4916a7a2daea11aab1cf" value="GFML" style="text;portConstraint=eastwest;overflow=hidden;rotatable=0;" vertex="1"><mxGeometry y="68.6582" width="138" height="18.916012" as="geometry" /></mxCell><mxCell id="a9ed43dd439b84725a246e5388ccde606891" parent="e9ccf0e71b1e4916a7a2daea11aab1cf" value="KSML" style="text;portConstraint=eastwest;overflow=hidden;rotatable=0;" vertex="1"><mxGeometry y="87.57422" width="138" height="18.916012" as="geometry" /></mxCell><mxCell id="a882caccf9bca4826879aaa681762af6b891" parent="e9ccf0e71b1e4916a7a2daea11aab1cf" value="LSML" style="text;portConstraint=eastwest;overflow=hidden;rotatable=0;" vertex="1"><mxGeometry y="106.490234" width="138" height="18.916012" as="geometry" /></mxCell><mxCell id="a36a36a4e03f24c3d9ac0bdcf2f573952891" parent="e9ccf0e71b1e4916a7a2daea11aab1cf" value="MOML" style="text;portConstraint=eastwest;overflow=hidden;rotatable=0;" vertex="1"><mxGeometry y="125.40625" width="138" height="18.916012" as="geometry" /></mxCell><mxCell id="aa8c1b6b12dd246c6b981f0f0b59b6c66891" parent="e9ccf0e71b1e4916a7a2daea11aab1cf" value="PFML" style="text;portConstraint=eastwest;overflow=hidden;rotatable=0;" vertex="1"><mxGeometry y="144.32227" width="138" height="18.916012" as="geometry" /></mxCell><mxCell id="ad0bdaa181ccb44b7b5f44f7f01a76270891" parent="e9ccf0e71b1e4916a7a2daea11aab1cf" value="VGML" style="text;portConstraint=eastwest;overflow=hidden;rotatable=0;" vertex="1"><mxGeometry y="163.23828" width="138" height="18.916012" as="geometry" /></mxCell><mxCell id="ad73388eae442437f83b0a59263074fb7891" parent="e9ccf0e71b1e4916a7a2daea11aab1cf" value="VJML" style="text;portConstraint=eastwest;overflow=hidden;rotatable=0;" vertex="1"><mxGeometry y="182.1543" width="138" height="18.916012" as="geometry" /></mxCell><mxCell id="f7afe71b2bd64cad9a1cfe2b5cf8aecd" parent="1" value="DietaryRestrictions" style="swimlane;childLayout=stackLayout;horizontal=1;horizontalStack=0;resizeParent=1;resizeParentMax=0;resizeLast=0;collapsible=1;html=1;strokeColor=#555555;strokeWidth=2;shadow=1;fillColor=#F2F2F2;swimlaneFillColor=#F2F2F2;" vertex="1"><mxGeometry x="0" y="2072" width="306" height="116" as="geometry" /></mxCell><mxCell id="aba7705c2121b4399a7978e96308a08bb891" parent="f7afe71b2bd64cad9a1cfe2b5cf8aecd" value="- restriction: DietaryRestriction" style="text;portConstraint=eastwest;overflow=hidden;rotatable=0;" vertex="1"><mxGeometry y="30.826172" width="300" height="19" as="geometry" /></mxCell><mxCell id="oe91600c5be4645b9acd7b49c994fe2f2891" parent="f7afe71b2bd64cad9a1cfe2b5cf8aecd" value="+ «create» DietaryRestrictions (restriction : DietaryRestriction)" style="text;portConstraint=eastwest;overflow=hidden;rotatable=0;" vertex="1"><mxGeometry y="55.82617" width="300" height="37" as="geometry" /></mxCell><mxCell id="o31830782da7341f0b59f6f6887488606891" parent="f7afe71b2bd64cad9a1cfe2b5cf8aecd" value="+ getRestriction (): DietaryRestriction" style="text;portConstraint=eastwest;overflow=hidden;rotatable=0;" vertex="1"><mxGeometry y="92.82617" width="300" height="19" as="geometry" /></mxCell><mxCell id="75e52ea8e90e46ef926927b504463c1a" parent="1" value="ReliefService" style="swimlane;childLayout=stackLayout;horizontal=1;horizontalStack=0;resizeParent=1;resizeParentMax=0;resizeLast=0;collapsible=1;html=1;strokeColor=#555555;strokeWidth=2;shadow=1;fillColor=#F2F2F2;swimlaneFillColor=#F2F2F2;" vertex="1"><mxGeometry x="3642" y="800" width="328" height="211" as="geometry" /></mxCell><mxCell id="ac7680ea71234424cb80dd987106161ad862" parent="75e52ea8e90e46ef926927b504463c1a" value="- inquirer: Inquirer" style="text;portConstraint=eastwest;overflow=hidden;rotatable=0;" vertex="1"><mxGeometry y="30.826172" width="322" height="19" as="geometry" /></mxCell><mxCell id="abe35a62b4ffa45668b6ec2a3268975f0862" parent="75e52ea8e90e46ef926927b504463c1a" value="- inquiries: ArrayList&lt;Inquiry&gt;" style="text;portConstraint=eastwest;overflow=hidden;rotatable=0;" vertex="1"><mxGeometry y="49.82617" width="322" height="19" as="geometry" /></mxCell><mxCell id="oed175956214e42e2b1de191b67d1112e862" parent="75e52ea8e90e46ef926927b504463c1a" value="+ «create» ReliefService (inquirer : Inquirer, inquiries : ArrayList&lt;Inquiry&gt;)" style="text;portConstraint=eastwest;overflow=hidden;rotatable=0;" vertex="1"><mxGeometry y="74.82617" width="322" height="37" as="geometry" /></mxCell><mxCell id="od78673b8d6334f1aa633885dcb21142d863" parent="75e52ea8e90e46ef926927b504463c1a" value="+ addInquiry (inquiry : Inquiry)" style="text;portConstraint=eastwest;overflow=hidden;rotatable=0;" vertex="1"><mxGeometry y="111.82617" width="322" height="19" as="geometry" /></mxCell><mxCell id="oa6a0815c5adc45259ca884f346fb6c82863" parent="75e52ea8e90e46ef926927b504463c1a" value="+ removeInquiry (inquiry : Inquiry)" style="text;portConstraint=eastwest;overflow=hidden;rotatable=0;" vertex="1"><mxGeometry y="130.82617" width="322" height="19" as="geometry" /></mxCell><mxCell id="o5ee5a0f07549470897bfa7bbdd416e1c863" parent="75e52ea8e90e46ef926927b504463c1a" value="+ setInquiries (inquiries : ArrayList&lt;Inquiry&gt;)" style="text;portConstraint=eastwest;overflow=hidden;rotatable=0;" vertex="1"><mxGeometry y="149.82617" width="322" height="19" as="geometry" /></mxCell><mxCell id="o8ab16ef150d04e77977821eeb3e50f09863" parent="75e52ea8e90e46ef926927b504463c1a" value="+ getInquiries (): ArrayList&lt;Inquiry&gt;" style="text;portConstraint=eastwest;overflow=hidden;rotatable=0;" vertex="1"><mxGeometry y="168.82617" width="322" height="19" as="geometry" /></mxCell><mxCell id="o39e3248ee66f40bba122392031d4d632863" parent="75e52ea8e90e46ef926927b504463c1a" value="+ getInquirer (): Inquirer" style="text;portConstraint=eastwest;overflow=hidden;rotatable=0;" vertex="1"><mxGeometry y="187.82617" width="322" height="19" as="geometry" /></mxCell><mxCell id="cc65ff1886be4475af6d0f0c202c0bee" parent="1" value="" style="startArrow=diamondThin;startFill=1;endArrow=none;endFill=0;html=1;strokeColor=#555555;strokeWidth=2;shadow=1;fillColor=#F2F2F2;swimlaneFillColor=#F2F2F2;" edge="1" source="fff52bec01ae4937989dea83e6d3be32" target="0a360f15ab824dddbbd1d4376049dd07"><mxGeometry x="3141.9834" y="973" width="908.0166" height="58.913086" as="geometry"><mxPoint x="4049" y="998" as="sourcePoint" /><mxPoint x="3142" y="999" as="targetPoint" /></mxGeometry></mxCell><mxCell id="3d5674dcc09d41d1b36991e120568cde" parent="1" value="InfoManagement" style="swimlane;html=1;strokeColor=#555555;strokeWidth=2;shadow=1;fillColor=#F2F2F2;swimlaneFillColor=#F2F2F2;" vertex="1"><mxGeometry x="1637" y="566" width="256" height="97" as="geometry" /></mxCell><mxCell id="64c4fcc47cc14ed7861ff331041c98ba_interface" parent="3d5674dcc09d41d1b36991e120568cde" value="interface" style="text;portConstraint=eastwest;overflow=hidden;rotatable=0;" vertex="1"><mxGeometry y="3" width="251" height="17.460936" as="geometry" /></mxCell><mxCell id="oee8b850ff47c484eb09e94b8a516ff22906" parent="3d5674dcc09d41d1b36991e120568cde" value="+ setDescription (newDescription : String)" style="text;portConstraint=eastwest;overflow=hidden;rotatable=0;" vertex="1"><mxGeometry y="54.82617" width="250" height="19" as="geometry" /></mxCell><mxCell id="od6896a6eefc447f2852f4ad51ef3af35906" parent="3d5674dcc09d41d1b36991e120568cde" value="+ getDescription (): String" style="text;portConstraint=eastwest;overflow=hidden;rotatable=0;" vertex="1"><mxGeometry y="73.82617" width="250" height="19" as="geometry" /></mxCell><mxCell id="0a360f15ab824dddbbd1d4376049dd07" parent="1" value="Location" style="swimlane;childLayout=stackLayout;horizontal=1;horizontalStack=0;resizeParent=1;resizeParentMax=0;resizeLast=0;collapsible=1;html=1;strokeColor=#555555;strokeWidth=2;shadow=1;fillColor=#F2F2F2;swimlaneFillColor=#F2F2F2;" vertex="1"><mxGeometry x="2806" y="808" width="336" height="364" as="geometry" /></mxCell><mxCell id="ab747147413574929b926164885aa0ad5896" parent="0a360f15ab824dddbbd1d4376049dd07" value="- name: String" style="text;portConstraint=eastwest;overflow=hidden;rotatable=0;" vertex="1"><mxGeometry y="30.826172" width="330" height="19" as="geometry" /></mxCell><mxCell id="a62fcdaf7fc2f4bf78a427c1d7d610e02896" parent="0a360f15ab824dddbbd1d4376049dd07" value="- address: String" style="text;portConstraint=eastwest;overflow=hidden;rotatable=0;" vertex="1"><mxGeometry y="49.82617" width="330" height="19" as="geometry" /></mxCell><mxCell id="a3855aeffffeb4185a33f54e9ce000182896" parent="0a360f15ab824dddbbd1d4376049dd07" value="- occupants: HashSet&lt;DisasterVictim&gt;" style="text;portConstraint=eastwest;overflow=hidden;rotatable=0;" vertex="1"><mxGeometry y="68.82617" width="330" height="19" as="geometry" /></mxCell><mxCell id="a2f1edae718b14c76b800398b5d39b6db896" parent="0a360f15ab824dddbbd1d4376049dd07" value="- supplies: HashSet&lt;Supply&gt;" style="text;portConstraint=eastwest;overflow=hidden;rotatable=0;" vertex="1"><mxGeometry y="87.82617" width="330" height="19" as="geometry" /></mxCell><mxCell id="o8b22ac598c3d44a5b587b88ec1a07a63896" parent="0a360f15ab824dddbbd1d4376049dd07" value="+ «create» Location (name : String, address : String)" style="text;portConstraint=eastwest;overflow=hidden;rotatable=0;" vertex="1"><mxGeometry y="112.82617" width="330" height="19" as="geometry" /></mxCell><mxCell id="obc2a1dfd5c1b4ac9989a08fdabb26d07896" parent="0a360f15ab824dddbbd1d4376049dd07" value="+ getName (): String" style="text;portConstraint=eastwest;overflow=hidden;rotatable=0;" vertex="1"><mxGeometry y="131.82617" width="330" height="19" as="geometry" /></mxCell><mxCell id="obeb7ba3a1a474758b3ea3273c2867173896" parent="0a360f15ab824dddbbd1d4376049dd07" value="+ setName (name : String)" style="text;portConstraint=eastwest;overflow=hidden;rotatable=0;" vertex="1"><mxGeometry y="150.82617" width="330" height="19" as="geometry" /></mxCell><mxCell id="o1d2eb1f3c405418099f87ee1984bc0d6896" parent="0a360f15ab824dddbbd1d4376049dd07" value="+ getAddress (): String" style="text;portConstraint=eastwest;overflow=hidden;rotatable=0;" vertex="1"><mxGeometry y="169.82617" width="330" height="19" as="geometry" /></mxCell><mxCell id="ob2803356d1734a198fbe7f3530e49568896" parent="0a360f15ab824dddbbd1d4376049dd07" value="+ setAddress (address : String)" style="text;portConstraint=eastwest;overflow=hidden;rotatable=0;" vertex="1"><mxGeometry y="188.82617" width="330" height="19" as="geometry" /></mxCell><mxCell id="oed5c4cff982d46b4a45908dd4d05f8ec896" parent="0a360f15ab824dddbbd1d4376049dd07" value="+ getOccupants (): HashSet&lt;DisasterVictim&gt;" style="text;portConstraint=eastwest;overflow=hidden;rotatable=0;" vertex="1"><mxGeometry y="207.82617" width="330" height="19" as="geometry" /></mxCell><mxCell id="oc4f68e6dfc07446186e410aea48f576a896" parent="0a360f15ab824dddbbd1d4376049dd07" value="+ setOccupants (occupants : HashSet&lt;DisasterVictim&gt;)" style="text;portConstraint=eastwest;overflow=hidden;rotatable=0;" vertex="1"><mxGeometry y="226.82617" width="330" height="19" as="geometry" /></mxCell><mxCell id="o09833587f9a14ea9ad6ef16229f7970c896" parent="0a360f15ab824dddbbd1d4376049dd07" value="+ getSupplies (): HashSet&lt;Supply&gt;" style="text;portConstraint=eastwest;overflow=hidden;rotatable=0;" vertex="1"><mxGeometry y="245.82617" width="330" height="19" as="geometry" /></mxCell><mxCell id="o2d0210038f9b4c88a846d991fd261781897" parent="0a360f15ab824dddbbd1d4376049dd07" value="+ setSupplies (supplies : HashSet&lt;Supply&gt;)" style="text;portConstraint=eastwest;overflow=hidden;rotatable=0;" vertex="1"><mxGeometry y="264.82617" width="330" height="19" as="geometry" /></mxCell><mxCell id="o331aaa56d39c4b9989d1e5179ba025e1897" parent="0a360f15ab824dddbbd1d4376049dd07" value="+ addOccupant (occupant : DisasterVictim)" style="text;portConstraint=eastwest;overflow=hidden;rotatable=0;" vertex="1"><mxGeometry y="283.82617" width="330" height="19" as="geometry" /></mxCell><mxCell id="o4f7de842c8994e3884c0e4bed84cf288897" parent="0a360f15ab824dddbbd1d4376049dd07" value="+ removeOccupant (occupant : DisasterVictim)" style="text;portConstraint=eastwest;overflow=hidden;rotatable=0;" vertex="1"><mxGeometry y="302.82617" width="330" height="19" as="geometry" /></mxCell><mxCell id="o237640d6bb7e4cba953f52482ff6a532897" parent="0a360f15ab824dddbbd1d4376049dd07" value="+ addSupply (newSupply : Supply)" style="text;portConstraint=eastwest;overflow=hidden;rotatable=0;" vertex="1"><mxGeometry y="321.82617" width="330" height="19" as="geometry" /></mxCell><mxCell id="o55b76f25d6c94bdeaad67c77a8754109897" parent="0a360f15ab824dddbbd1d4376049dd07" value="+ removeSupply (supply : Supply)" style="text;portConstraint=eastwest;overflow=hidden;rotatable=0;" vertex="1"><mxGeometry y="340.82617" width="330" height="19" as="geometry" /></mxCell><mxCell id="00c611a5be4848258f579abd5ea027e9" parent="1" value="AccessDatabaseLogs" style="swimlane;childLayout=stackLayout;horizontal=1;horizontalStack=0;resizeParent=1;resizeParentMax=0;resizeLast=0;collapsible=1;html=1;strokeColor=#555555;strokeWidth=2;shadow=1;fillColor=#F2F2F2;swimlaneFillColor=#F2F2F2;" vertex="1"><mxGeometry x="2806" y="244" width="355" height="528" as="geometry" /></mxCell><mxCell id="ad8b62c518f8147f59640ba718f014f94855" parent="00c611a5be4848258f579abd5ea027e9" value=" JDBC_DRIVER: String = &quot;org.postgresql.Driver&quot;" style="text;portConstraint=eastwest;overflow=hidden;rotatable=0;" vertex="1"><mxGeometry y="30.826172" width="349" height="19" as="geometry" /></mxCell><mxCell id="a335de700fbe5400a8631043f08af2553856" parent="00c611a5be4848258f579abd5ea027e9" value=" DBURL: String = &quot;jdbc:postgresql://localhost/project&quot;" style="text;portConstraint=eastwest;overflow=hidden;rotatable=0;" vertex="1"><mxGeometry y="49.82617" width="349" height="19" as="geometry" /></mxCell><mxCell id="afaa0babb2a924d25b08b658a452883b3856" parent="00c611a5be4848258f579abd5ea027e9" value=" USERNAME: String = &quot;oop&quot;" style="text;portConstraint=eastwest;overflow=hidden;rotatable=0;" vertex="1"><mxGeometry y="68.82617" width="349" height="19" as="geometry" /></mxCell><mxCell id="a8ff805bffa0e4b20ae0c7cd2476d418a856" parent="00c611a5be4848258f579abd5ea027e9" value=" PASSWORD: String = &quot;ucalgary&quot;" style="text;portConstraint=eastwest;overflow=hidden;rotatable=0;" vertex="1"><mxGeometry y="87.82617" width="349" height="19" as="geometry" /></mxCell><mxCell id="a58a6c018fa9b4103b30753da773a9274857" parent="00c611a5be4848258f579abd5ea027e9" value=" dbConnect: Connection" style="text;portConstraint=eastwest;overflow=hidden;rotatable=0;" vertex="1"><mxGeometry y="106.82617" width="349" height="19" as="geometry" /></mxCell><mxCell id="o6b341be649e54dbab17b34ce185e6102857" parent="00c611a5be4848258f579abd5ea027e9" value="+ mountFile ()" style="text;portConstraint=eastwest;overflow=hidden;rotatable=0;" vertex="1"><mxGeometry y="131.82617" width="349" height="19" as="geometry" /></mxCell><mxCell id="od62d6f45ed2943a7accf22dd34d5882d857" parent="00c611a5be4848258f579abd5ea027e9" value="+ dismountFile ()" style="text;portConstraint=eastwest;overflow=hidden;rotatable=0;" vertex="1"><mxGeometry y="150.82617" width="349" height="19" as="geometry" /></mxCell><mxCell id="tv2d4042049a9a42d0938c3e2849671032" parent="00c611a5be4848258f579abd5ea027e9" value="{Annotation = Override&#xD;}" style="text;portConstraint=eastwest;overflow=hidden;rotatable=0;" vertex="1"><mxGeometry y="169.82617" width="349" height="19" as="geometry" /></mxCell><mxCell id="o48b0aa9375e948019a9101020801948b857" parent="00c611a5be4848258f579abd5ea027e9" value="+ getAllInquiries (): ArrayList&lt;]&gt;" style="text;portConstraint=eastwest;overflow=hidden;rotatable=0;" vertex="1"><mxGeometry y="188.82617" width="349" height="19" as="geometry" /></mxCell><mxCell id="oa56287170602462e98efa309a13c76c1859" parent="00c611a5be4848258f579abd5ea027e9" value="+ getAllInquiryLogs (): ArrayList&lt;]&gt;" style="text;portConstraint=eastwest;overflow=hidden;rotatable=0;" vertex="1"><mxGeometry y="207.82617" width="349" height="19" as="geometry" /></mxCell><mxCell id="o5666cb381ae84eeca9cf00ee643c8bff859" parent="00c611a5be4848258f579abd5ea027e9" value="+ addInquirer (firstName : String, lastName : String, phoneNumber : String)" style="text;portConstraint=eastwest;overflow=hidden;rotatable=0;" vertex="1"><mxGeometry y="226.82617" width="349" height="37" as="geometry" /></mxCell><mxCell id="o28e292c94e4d4a8690187e0f98be5e78860" parent="00c611a5be4848258f579abd5ea027e9" value="+ addInquiryLog (firstName : String, lastName : String, callDate : String, details : String)" style="text;portConstraint=eastwest;overflow=hidden;rotatable=0;" vertex="1"><mxGeometry y="263.82617" width="349" height="37" as="geometry" /></mxCell><mxCell id="odf38c41549e7427abbffb63320f500b3860" parent="00c611a5be4848258f579abd5ea027e9" value="+ removeInquirer (firstName : String, lastName : String, phoneNumber : String)" style="text;portConstraint=eastwest;overflow=hidden;rotatable=0;" vertex="1"><mxGeometry y="300.82617" width="349" height="37" as="geometry" /></mxCell><mxCell id="o83fb440487f646808c5f367612aab6cf860" parent="00c611a5be4848258f579abd5ea027e9" value="+ removeInquiryLog (firstName : String, lastName : String, details : String)" style="text;portConstraint=eastwest;overflow=hidden;rotatable=0;" vertex="1"><mxGeometry y="337.82617" width="349" height="37" as="geometry" /></mxCell><mxCell id="off8dde094d144af29f2b5ce07e68a41b860" parent="00c611a5be4848258f579abd5ea027e9" value="+ findInquirerId (firstName : String, lastName : String, mountConnection : boolean): int" style="text;portConstraint=eastwest;overflow=hidden;rotatable=0;" vertex="1"><mxGeometry y="374.82617" width="349" height="37" as="geometry" /></mxCell><mxCell id="o27dd1a21c5a74c58b9b277d6291fcc2c860" parent="00c611a5be4848258f579abd5ea027e9" value="+ updateInquirer (inquirerId : int, firstName : String, lastName : String, phoneNumber : String)" style="text;portConstraint=eastwest;overflow=hidden;rotatable=0;" vertex="1"><mxGeometry y="411.82617" width="349" height="37" as="geometry" /></mxCell><mxCell id="of0634ff2b1bd4fa2808571a4ee896d36860" parent="00c611a5be4848258f579abd5ea027e9" value="+ updateInquiryLog (inquirerId : int, callDate : String, details : String)" style="text;portConstraint=eastwest;overflow=hidden;rotatable=0;" vertex="1"><mxGeometry y="448.82617" width="349" height="37" as="geometry" /></mxCell><mxCell id="obe0b8bb893e64027aa0213b1783ea65c860" parent="00c611a5be4848258f579abd5ea027e9" value="+ readFile (): ArrayList&lt;String&gt;" style="text;portConstraint=eastwest;overflow=hidden;rotatable=0;" vertex="1"><mxGeometry y="485.82617" width="349" height="19" as="geometry" /></mxCell><mxCell id="o9141c92f6b464fd082913904a22cef6a861" parent="00c611a5be4848258f579abd5ea027e9" value="+ writeFile ()" style="text;portConstraint=eastwest;overflow=hidden;rotatable=0;" vertex="1"><mxGeometry y="504.82617" width="349" height="19" as="geometry" /></mxCell></root></mxGraphModel></diagram></mxfile>